<svg width="1280" height="576" viewBox="0 0 1280 576" fill="none" xmlns="http://www.w3.org/2000/svg"><path fill="#F0F0F0" d="M0 0h1280v576H0z"/><path stroke="#D9D9D9" d="M80 431.5h1120"/><path d="M87.65 500.919c0 .697-.199 1.23-.595 1.6-.392.364-.948.546-1.668.546-.716 0-1.29-.239-1.723-.717-.428-.483-.642-1.14-.642-1.969v-.752c0-.802.216-1.442.649-1.921.437-.483 1.01-.725 1.716-.725.729 0 1.29.187 1.681.561.392.374.588.9.588 1.579h-.998c0-.451-.11-.772-.328-.964-.214-.196-.529-.294-.943-.294-.429 0-.766.158-1.012.472-.246.314-.37.752-.37 1.312v.773c0 .547.124.977.37 1.292.246.314.583.472 1.012.472.419 0 .733-.096.943-.288.214-.191.321-.517.321-.977h.998zm-6.242-.902c0 .783.183 1.51.547 2.18a4.09 4.09 0 001.484 1.566 3.885 3.885 0 002.037.567 3.85 3.85 0 002.03-.567 4.09 4.09 0 001.483-1.566 4.49 4.49 0 00.547-2.18c0-.775-.18-1.493-.54-2.154a4.03 4.03 0 00-1.483-1.558 3.824 3.824 0 00-2.037-.575c-.73 0-1.409.19-2.037.568a4.024 4.024 0 00-1.49 1.558 4.472 4.472 0 00-.54 2.161zm-.786 0c0-.921.212-1.775.636-2.564a4.795 4.795 0 011.77-1.859 4.657 4.657 0 012.448-.684c.875 0 1.688.228 2.44.684a4.745 4.745 0 011.764 1.859c.428.789.642 1.643.642 2.564 0 .897-.205 1.738-.615 2.522a4.89 4.89 0 01-1.75 1.894 4.561 4.561 0 01-2.481.711 4.613 4.613 0 01-2.482-.705 4.904 4.904 0 01-1.75-1.886 5.341 5.341 0 01-.622-2.536zM102.227 505h-6.521v-.909l3.445-3.828c.51-.579.861-1.048 1.053-1.409a2.35 2.35 0 00.294-1.127c0-.52-.158-.946-.472-1.279-.314-.332-.734-.499-1.258-.499-.629 0-1.119.18-1.47.54-.346.356-.52.852-.52 1.49h-1.264c0-.916.294-1.656.882-2.221.593-.565 1.383-.848 2.372-.848.925 0 1.657.244 2.194.732.538.483.807 1.128.807 1.934 0 .98-.624 2.147-1.873 3.5l-2.666 2.892h4.997V505zm7.781-4.245c0 1.481-.253 2.582-.759 3.302-.505.72-1.296 1.08-2.372 1.08-1.062 0-1.848-.351-2.358-1.053-.51-.706-.775-1.759-.793-3.158v-1.689c0-1.463.253-2.549.759-3.26.506-.711 1.299-1.067 2.379-1.067 1.071 0 1.859.344 2.365 1.032.506.684.766 1.741.779 3.172v1.641zm-1.264-1.73c0-1.071-.151-1.85-.452-2.337-.3-.493-.777-.739-1.428-.739-.647 0-1.119.244-1.415.732-.297.487-.449 1.237-.458 2.249v2.023c0 1.076.155 1.871.464 2.386.315.51.789.765 1.422.765.625 0 1.087-.241 1.388-.724.305-.483.465-1.244.479-2.283v-2.072zM118.35 505h-6.522v-.909l3.446-3.828c.51-.579.861-1.048 1.052-1.409a2.35 2.35 0 00.294-1.127c0-.52-.157-.946-.471-1.279-.315-.332-.734-.499-1.258-.499-.629 0-1.119.18-1.47.54-.346.356-.519.852-.519 1.49h-1.265c0-.916.294-1.656.882-2.221.592-.565 1.383-.848 2.372-.848.925 0 1.656.244 2.194.732.538.483.807 1.128.807 1.934 0 .98-.625 2.147-1.873 3.5l-2.666 2.892h4.997V505zm5.696 0h-1.272v-8.429l-2.549.937v-1.149l3.623-1.36h.198V505zm15.254-1.306c-.337.483-.809.846-1.415 1.087-.601.237-1.303.356-2.105.356-.811 0-1.531-.189-2.16-.568-.629-.382-1.117-.925-1.463-1.627-.342-.701-.517-1.515-.527-2.44v-.868c0-1.5.349-2.662 1.046-3.487.702-.824 1.687-1.237 2.953-1.237 1.04 0 1.876.267 2.509.8.634.529 1.021 1.281 1.162 2.256h-1.312c-.246-1.317-1.03-1.976-2.352-1.976-.879 0-1.547.31-2.003.93-.451.615-.679 1.508-.683 2.68v.813c0 1.117.255 2.005.765 2.666.511.656 1.201.984 2.072.984.492 0 .923-.054 1.292-.164.369-.109.674-.294.916-.553v-2.236h-2.304v-1.066h3.609v3.65zm2.395 1.306v-9.953h3.254c1.08 0 1.891.223 2.433.67.547.446.821 1.107.821 1.982 0 .465-.133.877-.397 1.238a2.582 2.582 0 01-1.08.827c.538.15.962.437 1.271.861.315.419.472.921.472 1.504 0 .893-.289 1.595-.868 2.105-.579.511-1.397.766-2.454.766h-3.452zm1.312-4.655v3.582h2.167c.611 0 1.092-.157 1.443-.472.355-.319.533-.756.533-1.312 0-1.199-.652-1.798-1.955-1.798h-2.188zm0-1.053h1.983c.574 0 1.032-.144 1.374-.431.346-.287.519-.676.519-1.169 0-.546-.159-.943-.478-1.189-.319-.251-.805-.376-1.456-.376h-1.942v3.165zm9.306-4.245l3.254 8.121 3.254-8.121h1.702V505h-1.313v-3.876l.123-4.184-3.267 8.06h-1.005l-3.261-8.039.13 4.163V505h-1.313v-9.953h1.696zm13.66 5.516c-1.126-.323-1.946-.72-2.461-1.189a2.292 2.292 0 01-.766-1.75c0-.784.312-1.431.937-1.941.629-.515 1.444-.773 2.447-.773.683 0 1.292.132 1.825.397.538.264.953.629 1.244 1.093.296.465.445.973.445 1.525h-1.32c0-.602-.191-1.073-.574-1.415-.383-.347-.923-.52-1.62-.52-.647 0-1.153.144-1.518.431-.36.282-.54.677-.54 1.183 0 .405.171.749.513 1.032.346.278.932.533 1.757.765.829.233 1.476.49 1.941.773.47.278.816.604 1.039.977.228.374.342.814.342 1.32 0 .806-.314 1.453-.943 1.941-.629.483-1.47.725-2.523.725-.683 0-1.321-.13-1.914-.39-.592-.264-1.05-.624-1.374-1.08a2.641 2.641 0 01-.478-1.552h1.319c0 .602.221 1.078.663 1.429.447.346 1.041.519 1.784.519.693 0 1.224-.141 1.593-.423.369-.283.554-.668.554-1.156 0-.487-.171-.863-.513-1.128-.342-.268-.962-.533-1.859-.793zM176.401 505h-1.265v-7.396h1.265V505zm-1.367-9.358c0-.205.061-.379.184-.52.128-.141.315-.212.561-.212.246 0 .433.071.56.212a.746.746 0 01.192.52.718.718 0 01-.192.512c-.127.137-.314.205-.56.205-.246 0-.433-.068-.561-.205a.735.735 0 01-.184-.512zm4.794 1.962l.041.929c.565-.711 1.303-1.066 2.214-1.066 1.564 0 2.352.882 2.366 2.645V505h-1.265v-4.895c-.005-.533-.128-.927-.369-1.182-.237-.255-.609-.383-1.114-.383a1.82 1.82 0 00-1.08.328 2.23 2.23 0 00-.725.861V505h-1.265v-7.396h1.197zm9.695 6.5c.451 0 .845-.136 1.182-.41.338-.273.524-.615.561-1.025h1.196a2.302 2.302 0 01-.437 1.21 2.876 2.876 0 01-1.08.916 3.087 3.087 0 01-1.422.342c-1.008 0-1.81-.335-2.407-1.005-.592-.675-.888-1.595-.888-2.762v-.212c0-.72.132-1.36.396-1.921.265-.56.643-.995 1.135-1.305.497-.31 1.082-.465 1.757-.465.829 0 1.517.248 2.064.745.552.497.846 1.142.882 1.934h-1.196c-.037-.478-.219-.87-.547-1.175-.324-.31-.725-.465-1.203-.465-.643 0-1.142.232-1.497.697-.351.46-.527 1.128-.527 2.003v.239c0 .853.176 1.509.527 1.969.351.46.852.69 1.504.69zm4.588.233a.8.8 0 01.192-.547c.132-.146.328-.219.588-.219.259 0 .455.073.588.219a.772.772 0 01.205.547c0 .21-.069.385-.205.526-.133.142-.329.212-.588.212-.26 0-.456-.07-.588-.212a.753.753 0 01-.192-.526zm13.231-1.935h-4.17l-.936 2.598h-1.354l3.801-9.953h1.149l3.807 9.953h-1.346l-.951-2.598zm-3.773-1.08h3.384l-1.696-4.655-1.688 4.655zm8.786 3.678h-1.265v-10.5h1.265V505zm3.604 0h-1.264v-10.5h1.264V505zm9.478-6.262a3.768 3.768 0 00-.622-.048c-.829 0-1.392.354-1.688 1.06V505h-1.265v-7.396h1.231l.02.854c.415-.661 1.003-.991 1.764-.991.246 0 .433.032.56.095v1.176zM228.18 505h-1.264v-7.396h1.264V505zm-1.367-9.358c0-.205.062-.379.185-.52.127-.141.314-.212.56-.212.246 0 .433.071.561.212a.75.75 0 01.191.52.722.722 0 01-.191.512c-.128.137-.315.205-.561.205-.246 0-.433-.068-.56-.205a.735.735 0 01-.185-.512zm3.297 5.598c0-1.153.266-2.069.8-2.748.533-.683 1.239-1.025 2.119-1.025.902 0 1.606.319 2.112.957l.062-.82h1.155v7.218c0 .957-.285 1.712-.855 2.263-.565.551-1.326.827-2.283.827a3.8 3.8 0 01-1.565-.342c-.511-.228-.9-.54-1.169-.936l.656-.759c.542.67 1.205 1.005 1.989 1.005.615 0 1.094-.173 1.436-.52.346-.346.519-.834.519-1.463v-.635c-.506.583-1.196.875-2.071.875-.866 0-1.568-.349-2.105-1.046-.534-.697-.8-1.648-.8-2.851zm1.271.144c0 .834.171 1.49.513 1.969.342.473.82.71 1.435.71.798 0 1.384-.362 1.757-1.086V499.6c-.387-.707-.968-1.06-1.743-1.06-.615 0-1.096.239-1.442.718-.347.478-.52 1.187-.52 2.126zm8.356-2.885c.56-.688 1.289-1.032 2.187-1.032 1.563 0 2.352.882 2.365 2.645V505h-1.264v-4.895c-.005-.533-.128-.927-.37-1.182-.237-.255-.608-.383-1.114-.383-.41 0-.77.109-1.08.328-.31.219-.551.506-.724.861V505h-1.265v-10.5h1.265v3.999zm8.362-2.687v1.792h1.38v.977h-1.38v4.587c0 .296.061.52.184.67.123.146.333.219.629.219.146 0 .346-.028.602-.082V505a3.68 3.68 0 01-.971.137c-.565 0-.991-.171-1.278-.513-.287-.342-.431-.827-.431-1.456v-4.587h-1.347v-.977h1.347v-1.792h1.265zm7.371 7.226c0-.342-.13-.606-.39-.793-.255-.191-.704-.355-1.347-.492-.638-.137-1.146-.301-1.524-.492-.374-.192-.652-.42-.834-.684a1.648 1.648 0 01-.267-.943c0-.606.255-1.119.766-1.538.515-.42 1.171-.629 1.969-.629.838 0 1.517.216 2.037.649.524.433.786.987.786 1.661h-1.272c0-.346-.148-.645-.444-.895-.292-.251-.661-.376-1.107-.376-.461 0-.821.1-1.081.301a.947.947 0 00-.389.786c0 .305.121.535.362.69.242.155.677.303 1.306.445.633.141 1.146.309 1.538.505.392.196.681.433.868.711.191.274.287.609.287 1.005 0 .661-.264 1.192-.793 1.593-.528.396-1.214.595-2.057.595-.593 0-1.117-.105-1.573-.315a2.59 2.59 0 01-1.073-.875 2.146 2.146 0 01-.383-1.223h1.265c.023.423.191.761.506 1.011.319.246.738.369 1.258.369.478 0 .861-.095 1.148-.287.292-.196.438-.455.438-.779zm10.359-4.3a3.768 3.768 0 00-.622-.048c-.829 0-1.392.354-1.688 1.06V505h-1.265v-7.396h1.231l.02.854c.415-.661 1.003-.991 1.764-.991.246 0 .433.032.56.095v1.176zm4.302 6.399c-1.003 0-1.818-.328-2.447-.985-.629-.66-.944-1.542-.944-2.645v-.233c0-.733.139-1.387.417-1.962a3.295 3.295 0 011.176-1.353 2.96 2.96 0 011.641-.492c.961 0 1.709.317 2.242.95.533.633.8 1.54.8 2.721v.526h-5.011c.018.729.23 1.319.636 1.771.41.446.93.669 1.558.669.447 0 .825-.091 1.135-.273.31-.182.581-.424.814-.725l.772.602c-.62.952-1.549 1.429-2.789 1.429zm-.157-6.631c-.511 0-.939.187-1.285.56-.347.37-.561.889-.643 1.559h3.705v-.096c-.036-.642-.209-1.139-.519-1.49-.31-.355-.73-.533-1.258-.533zm9.018 4.532c0-.342-.13-.606-.389-.793-.256-.191-.705-.355-1.347-.492-.638-.137-1.146-.301-1.525-.492-.373-.192-.651-.42-.834-.684a1.655 1.655 0 01-.266-.943c0-.606.255-1.119.765-1.538.515-.42 1.172-.629 1.969-.629.839 0 1.518.216 2.037.649.524.433.786.987.786 1.661h-1.271c0-.346-.148-.645-.444-.895-.292-.251-.661-.376-1.108-.376-.46 0-.82.1-1.08.301a.944.944 0 00-.389.786c0 .305.12.535.362.69.241.155.677.303 1.305.445.634.141 1.147.309 1.539.505.391.196.681.433.868.711.191.274.287.609.287 1.005 0 .661-.264 1.192-.793 1.593-.529.396-1.215.595-2.058.595-.592 0-1.116-.105-1.572-.315a2.584 2.584 0 01-1.073-.875 2.146 2.146 0 01-.383-1.223h1.265c.022.423.191.761.505 1.011.319.246.739.369 1.258.369.479 0 .862-.095 1.149-.287.291-.196.437-.455.437-.779zm6.182 2.099c-1.003 0-1.819-.328-2.448-.985-.629-.66-.943-1.542-.943-2.645v-.233c0-.733.139-1.387.417-1.962a3.288 3.288 0 011.176-1.353 2.96 2.96 0 011.64-.492c.962 0 1.709.317 2.243.95.533.633.799 1.54.799 2.721v.526h-5.01c.018.729.23 1.319.635 1.771.411.446.93.669 1.559.669.447 0 .825-.091 1.135-.273.31-.182.581-.424.813-.725l.773.602c-.62.952-1.55 1.429-2.789 1.429zm-.158-6.631c-.51 0-.938.187-1.285.56-.346.37-.56.889-.642 1.559h3.705v-.096c-.037-.642-.21-1.139-.52-1.49-.31-.355-.729-.533-1.258-.533zm8.287.232a3.768 3.768 0 00-.622-.048c-.829 0-1.392.354-1.688 1.06V505h-1.265v-7.396h1.231l.02.854c.415-.661 1.003-.991 1.764-.991.246 0 .433.032.56.095v1.176zm3.933 4.546l1.832-5.68h1.292L297.707 505h-.963l-2.68-7.396h1.292l1.88 5.68zm7.514 1.853c-1.002 0-1.818-.328-2.447-.985-.629-.66-.943-1.542-.943-2.645v-.233c0-.733.139-1.387.417-1.962a3.286 3.286 0 011.175-1.353 2.96 2.96 0 011.641-.492c.962 0 1.709.317 2.242.95.533.633.8 1.54.8 2.721v.526h-5.011c.018.729.23 1.319.636 1.771.41.446.93.669 1.559.669.446 0 .824-.091 1.134-.273.31-.182.581-.424.814-.725l.772.602c-.62.952-1.549 1.429-2.789 1.429zm-.157-6.631c-.51 0-.939.187-1.285.56-.347.37-.561.889-.643 1.559h3.705v-.096c-.036-.642-.209-1.139-.519-1.49-.31-.355-.729-.533-1.258-.533zm4.404 2.734c0-1.135.269-2.046.807-2.734.537-.693 1.242-1.039 2.112-1.039.866 0 1.552.296 2.058.888V494.5h1.264V505h-1.162l-.061-.793c-.506.62-1.21.93-2.113.93-.856 0-1.556-.351-2.098-1.053-.538-.702-.807-1.618-.807-2.748v-.096zm1.265.144c0 .838.173 1.495.519 1.969.347.473.825.71 1.436.71.802 0 1.387-.36 1.757-1.08v-3.397c-.379-.697-.96-1.046-1.744-1.046-.619 0-1.102.239-1.449.718-.346.478-.519 1.187-.519 2.126z" fill="#1F1F1F"/><path d="M83.74 132.529h-1.21V137h-1.313v-9.953h1.312v4.389h1.026l3.48-4.389h1.633l-3.8 4.826 4.08 5.127h-1.606l-3.603-4.471zm11.217-1.9h-2.481V137H91.21v-6.371h-2.434v-1.025h6.18v1.025zm.608 2.604c0-.724.142-1.376.424-1.955.287-.578.684-1.025 1.19-1.34.51-.314 1.091-.471 1.743-.471 1.007 0 1.821.348 2.44 1.046.625.697.937 1.624.937 2.782v.089c0 .72-.139 1.367-.417 1.941a3.117 3.117 0 01-1.183 1.333c-.51.319-1.098.479-1.763.479-1.003 0-1.817-.349-2.44-1.046-.62-.697-.93-1.62-.93-2.769v-.089zm1.272.151c0 .82.189 1.479.567 1.975.383.497.894.745 1.532.745.642 0 1.153-.25 1.531-.751.378-.506.567-1.213.567-2.12 0-.811-.194-1.467-.581-1.968-.383-.506-.893-.759-1.531-.759-.624 0-1.128.248-1.51.745-.384.497-.575 1.208-.575 2.133zm14.779 1.941l2.516-5.721h1.579V137h-1.265v-5.38l-2.392 5.38h-.875l-2.441-5.496V137h-1.264v-7.396h1.64l2.502 5.721zm7.513-3.172h1.921c.838.009 1.501.228 1.989.657.488.428.732 1.009.732 1.743 0 .738-.251 1.33-.752 1.777-.502.447-1.176.67-2.024.67h-3.131v-7.396h1.265v2.549zm7.28 4.847h-1.271v-7.396h1.271V137zm-7.28-3.814v2.782h1.88c.474 0 .841-.121 1.1-.363.26-.246.39-.581.39-1.004 0-.411-.128-.746-.383-1.005-.25-.265-.604-.401-1.059-.41h-1.928zM470.11 139.44h-1.305V137h-7.144v2.447h-1.312l-.007-3.52h.813c.429-.483.768-1.13 1.019-1.942.255-.815.415-1.709.478-2.679l.219-4.259h5.954v8.88h1.299l-.014 3.513zm-7.458-3.513h4.854v-7.8h-3.37l-.144 2.926c-.059 1.144-.212 2.119-.458 2.926-.241.806-.535 1.456-.882 1.948zm8.497-2.694c0-.724.142-1.376.424-1.955a3.226 3.226 0 011.19-1.34c.51-.314 1.091-.471 1.743-.471 1.007 0 1.82.348 2.44 1.046.625.697.937 1.624.937 2.782v.089c0 .72-.139 1.367-.417 1.941a3.117 3.117 0 01-1.183 1.333c-.51.319-1.098.479-1.763.479-1.003 0-1.817-.349-2.441-1.046-.62-.697-.93-1.62-.93-2.769v-.089zm1.272.151c0 .82.189 1.479.567 1.975.383.497.894.745 1.532.745.642 0 1.153-.25 1.531-.751.378-.506.567-1.213.567-2.12 0-.811-.194-1.467-.581-1.968-.383-.506-.893-.759-1.531-.759-.624 0-1.128.248-1.511.745s-.574 1.208-.574 2.133zm10.295-3.357c.93 0 1.672.313 2.228.937.561.62.841 1.438.841 2.454v.116c0 .697-.134 1.322-.403 1.873a3.013 3.013 0 01-1.162 1.279c-.502.3-1.08.451-1.737.451-.993 0-1.793-.331-2.399-.991-.606-.666-.909-1.557-.909-2.673v-.616c0-1.554.287-2.789.861-3.705.579-.916 1.431-1.474 2.557-1.674.638-.114 1.068-.253 1.292-.417a.796.796 0 00.335-.677h1.039c0 .569-.13 1.014-.39 1.333-.255.319-.665.544-1.23.677l-.944.211c-.752.178-1.317.479-1.695.903-.374.419-.618.98-.731 1.681.669-.774 1.485-1.162 2.447-1.162zm-.246 1.039c-.62 0-1.112.21-1.477.629-.364.415-.547.992-.547 1.73v.109c0 .793.183 1.422.547 1.887.369.46.866.69 1.49.69.629 0 1.126-.232 1.491-.697.364-.465.547-1.144.547-2.037 0-.697-.185-1.256-.554-1.675-.365-.424-.864-.636-1.497-.636zm9.303 5.934c-.072-.146-.132-.406-.177-.779-.588.61-1.29.916-2.106.916-.729 0-1.328-.205-1.798-.616a2.016 2.016 0 01-.697-1.572c0-.77.292-1.367.875-1.791.588-.428 1.413-.642 2.475-.642h1.23v-.581c0-.442-.132-.793-.396-1.053-.265-.264-.654-.397-1.169-.397-.451 0-.83.114-1.135.342-.305.228-.458.504-.458.827h-1.271c0-.369.129-.724.389-1.066.264-.346.62-.62 1.067-.82a3.6 3.6 0 011.483-.301c.852 0 1.52.214 2.003.642.483.424.734 1.01.752 1.757v3.405c0 .679.086 1.219.26 1.62V137h-1.327zm-2.098-.964c.396 0 .772-.102 1.128-.307.355-.206.613-.472.772-.8v-1.518h-.991c-1.549 0-2.324.454-2.324 1.36 0 .397.132.707.396.93.265.223.604.335 1.019.335zm5.263.964v-7.396h2.885c.985 0 1.739.173 2.263.519.529.342.793.845.793 1.511 0 .342-.103.651-.308.929-.205.274-.508.484-.909.629.447.105.804.31 1.073.616.274.305.411.67.411 1.093 0 .679-.251 1.199-.752 1.559-.497.36-1.201.54-2.113.54h-3.343zm1.265-3.247v2.228h2.092c.529 0 .923-.098 1.183-.293.264-.196.396-.472.396-.828 0-.738-.542-1.107-1.627-1.107h-2.044zm0-1.012h1.634c1.185 0 1.777-.346 1.777-1.039s-.56-1.05-1.681-1.073h-1.73v2.112zm11.402-3.137h1.265V137h-1.265v-5.394L504.194 137h-1.264v-7.396h1.264v5.4l3.411-5.4zm8.791 1.025h-2.481V137h-1.265v-6.371h-2.433v-1.025h6.179v1.025zm2.612 1.524h1.921c.838.009 1.501.228 1.989.657.488.428.731 1.009.731 1.743 0 .738-.25 1.33-.752 1.777-.501.447-1.175.67-2.023.67h-3.131v-7.396h1.265v2.549zm0 1.033v2.782h1.88c.474 0 .841-.121 1.1-.363.26-.246.39-.581.39-1.004 0-.411-.128-.746-.383-1.005-.251-.265-.604-.401-1.059-.41h-1.928zM534.751 137h-1.265v-6.351h-3.404V137h-1.271v-7.396h5.94V137zm8.094-7.396V137h-1.272v-6.351h-2.515l-.151 2.769c-.082 1.271-.296 2.181-.642 2.728-.342.546-.887.831-1.634.854h-.506v-1.114l.362-.028c.41-.045.704-.282.882-.711.178-.428.292-1.221.342-2.378l.137-3.165h4.997zm7.683 0V137h-1.271v-2.878h-1.907L545.606 137h-1.367l1.86-3.069c-.474-.174-.839-.44-1.094-.8a2.19 2.19 0 01-.376-1.272c0-.674.253-1.216.759-1.627.506-.414 1.182-.624 2.03-.628h3.11zm-4.628 2.269c0 .36.123.652.37.875.246.219.571.33.977.335h2.01v-2.454h-1.819c-.469 0-.843.116-1.121.349a1.1 1.1 0 00-.417.895zm12.558 1.914h-.889V137h-1.264v-3.213h-.889L553.345 137h-1.6l2.646-3.828-2.393-3.568h1.531l1.908 3.062h.868v-3.062h1.264v3.062h.862l1.921-3.062h1.531l-2.4 3.575 2.646 3.821h-1.6l-2.071-3.213zm9.604-4.183h1.265V137h-1.265v-5.394L564.651 137h-1.264v-7.396h1.264v5.4l3.411-5.4zM848.477 133.842c-.123 1.053-.513 1.866-1.169 2.44-.652.57-1.52.855-2.605.855-1.176 0-2.119-.422-2.83-1.265-.706-.843-1.06-1.971-1.06-3.384v-.957c0-.925.165-1.738.493-2.44.332-.702.802-1.24 1.408-1.613.606-.379 1.308-.568 2.105-.568 1.058 0 1.905.296 2.543.889.638.588 1.01 1.403 1.115 2.447h-1.32c-.114-.793-.362-1.367-.745-1.723-.378-.355-.909-.533-1.593-.533-.838 0-1.497.31-1.975.93-.474.62-.711 1.502-.711 2.645v.964c0 1.08.225 1.939.677 2.577.451.638 1.082.957 1.893.957.729 0 1.288-.164 1.675-.492.392-.332.652-.909.779-1.729h1.32zm1.715 3.158v-7.396h2.885c.985 0 1.739.173 2.263.519.528.342.793.845.793 1.511 0 .342-.103.651-.308.929-.205.274-.508.484-.909.629.447.105.804.31 1.073.616.274.305.41.67.41 1.093 0 .679-.25 1.199-.752 1.559-.496.36-1.2.54-2.112.54h-3.343zm1.265-3.247v2.228h2.092c.528 0 .923-.098 1.182-.293.265-.196.397-.472.397-.828 0-.738-.542-1.107-1.627-1.107h-2.044zm0-1.012h1.634c1.185 0 1.777-.346 1.777-1.039s-.56-1.05-1.681-1.073h-1.73v2.112zm12.271-3.137V137h-1.272v-2.878h-1.907L858.806 137h-1.368l1.86-3.069c-.474-.174-.839-.44-1.094-.8a2.19 2.19 0 01-.376-1.272c0-.674.253-1.216.759-1.627.506-.414 1.183-.624 2.03-.628h3.111zm-4.628 2.269c0 .36.123.652.369.875.246.219.572.33.977.335h2.01v-2.454h-1.818c-.47 0-.843.116-1.121.349a1.1 1.1 0 00-.417.895zm10.725-.246a.974.974 0 00-.396-.82c-.265-.205-.627-.308-1.087-.308-.447 0-.821.116-1.121.349-.297.232-.445.506-.445.82h-1.257c0-.643.268-1.169.806-1.579.538-.41 1.21-.615 2.017-.615.866 0 1.54.186 2.023.56.483.369.725.898.725 1.586 0 .333-.1.638-.301.916-.2.278-.485.499-.854.663.861.292 1.292.866 1.292 1.723 0 .679-.262 1.217-.787 1.613-.524.397-1.223.595-2.098.595-.852 0-1.557-.207-2.113-.622-.551-.419-.827-.985-.827-1.696h1.258c0 .361.16.67.479.93.323.255.724.383 1.203.383.483 0 .873-.112 1.169-.335a1.04 1.04 0 00.444-.868c0-.415-.125-.711-.376-.889-.246-.182-.631-.273-1.155-.273h-1.265v-1.067h1.374c.862-.022 1.292-.378 1.292-1.066zm7.609 5.373c-.073-.146-.133-.406-.178-.779-.588.61-1.29.916-2.106.916-.729 0-1.328-.205-1.797-.616a2.014 2.014 0 01-.698-1.572c0-.77.292-1.367.875-1.791.588-.428 1.413-.642 2.475-.642h1.23v-.581c0-.442-.132-.793-.396-1.053-.264-.264-.654-.397-1.169-.397-.451 0-.83.114-1.135.342-.305.228-.458.504-.458.827h-1.271c0-.369.13-.724.389-1.066.265-.346.62-.62 1.067-.82a3.6 3.6 0 011.483-.301c.852 0 1.52.214 2.003.642.483.424.734 1.01.752 1.757v3.405c0 .679.087 1.219.26 1.62V137h-1.326zm-2.099-.964c.396 0 .772-.102 1.128-.307.355-.206.613-.472.772-.8v-1.518h-.991c-1.549 0-2.324.454-2.324 1.36 0 .397.132.707.396.93.265.223.604.335 1.019.335zm10.534-5.407h-2.481V137h-1.265v-6.371h-2.434v-1.025h6.18v1.025zm2.611 1.524h1.921c.839.009 1.502.228 1.99.657.487.428.731 1.009.731 1.743 0 .738-.251 1.33-.752 1.777-.501.447-1.176.67-2.023.67h-3.131v-7.396h1.264v2.549zm0 1.033v2.782h1.88c.474 0 .841-.121 1.101-.363.26-.246.39-.581.39-1.004 0-.411-.128-.746-.383-1.005-.251-.265-.604-.401-1.06-.41h-1.928zm9.188 2.918c.451 0 .845-.136 1.183-.41a1.44 1.44 0 00.56-1.025h1.196a2.285 2.285 0 01-.437 1.21 2.876 2.876 0 01-1.08.916 3.087 3.087 0 01-1.422.342c-1.007 0-1.809-.335-2.406-1.005-.593-.675-.889-1.595-.889-2.762v-.212c0-.72.132-1.36.397-1.921.264-.56.642-.995 1.134-1.305.497-.31 1.083-.465 1.757-.465.83 0 1.518.248 2.065.745.551.497.845 1.142.881 1.934h-1.196c-.036-.478-.219-.87-.547-1.175-.323-.31-.724-.465-1.203-.465-.642 0-1.141.232-1.497.697-.351.46-.526 1.128-.526 2.003v.239c0 .853.175 1.509.526 1.969.351.46.852.69 1.504.69zm10.015-6.5V137h-1.272v-2.878h-1.907L902.761 137h-1.367l1.859-3.069c-.474-.174-.839-.44-1.094-.8a2.197 2.197 0 01-.376-1.272c0-.674.253-1.216.759-1.627.506-.414 1.183-.624 2.03-.628h3.111zm-4.628 2.269c0 .36.123.652.369.875.246.219.572.33.977.335h2.01v-2.454h-1.818c-.47 0-.843.116-1.121.349a1.1 1.1 0 00-.417.895zm13.097 4.231c.452 0 .846-.136 1.183-.41.337-.273.524-.615.561-1.025h1.196a2.295 2.295 0 01-.438 1.21 2.876 2.876 0 01-1.08.916c-.446.228-.92.342-1.422.342-1.007 0-1.809-.335-2.406-1.005-.592-.675-.889-1.595-.889-2.762v-.212c0-.72.133-1.36.397-1.921.264-.56.642-.995 1.135-1.305.496-.31 1.082-.465 1.757-.465.829 0 1.517.248 2.064.745.551.497.845 1.142.882 1.934h-1.196c-.037-.478-.219-.87-.547-1.175-.324-.31-.725-.465-1.203-.465-.643 0-1.142.232-1.498.697-.35.46-.526 1.128-.526 2.003v.239c0 .853.176 1.509.526 1.969.351.46.853.69 1.504.69zm13.877.896h-1.264v-3.158h-3.398V137h-1.271v-7.396h1.271v3.206h3.398v-3.206h1.264V137zm6.604 0c-.073-.146-.132-.406-.178-.779-.588.61-1.29.916-2.105.916-.73 0-1.329-.205-1.798-.616a2.014 2.014 0 01-.698-1.572c0-.77.292-1.367.875-1.791.588-.428 1.413-.642 2.475-.642h1.231v-.581c0-.442-.133-.793-.397-1.053-.264-.264-.654-.397-1.169-.397-.451 0-.829.114-1.135.342-.305.228-.458.504-.458.827h-1.271c0-.369.13-.724.39-1.066.264-.346.619-.62 1.066-.82a3.604 3.604 0 011.483-.301c.853 0 1.52.214 2.003.642.483.424.734 1.01.752 1.757v3.405c0 .679.087 1.219.26 1.62V137h-1.326zm-2.099-.964a2.22 2.22 0 001.128-.307c.356-.206.613-.472.773-.8v-1.518h-.992c-1.549 0-2.324.454-2.324 1.36 0 .397.132.707.397.93.264.223.603.335 1.018.335zm9.406-.711l2.516-5.721h1.579V137h-1.264v-5.38l-2.393 5.38h-.875l-2.441-5.496V137h-1.264v-7.396h1.64l2.502 5.721zm10.917-5.721h1.265V137h-1.265v-5.394L951.446 137h-1.264v-7.396h1.264v5.4l3.411-5.4zM848.757 169h-1.319v-8.873h-4.909V169h-1.312v-9.953h7.54V169zm1.859-3.767c0-.724.141-1.376.424-1.955a3.23 3.23 0 011.189-1.34c.511-.314 1.092-.471 1.744-.471 1.007 0 1.82.348 2.44 1.046.624.697.937 1.624.937 2.782v.089c0 .72-.139 1.367-.417 1.941a3.117 3.117 0 01-1.183 1.333c-.51.319-1.098.479-1.764.479-1.002 0-1.816-.349-2.44-1.046-.62-.697-.93-1.62-.93-2.769v-.089zm1.272.151c0 .82.189 1.479.567 1.975.383.497.893.745 1.531.745.643 0 1.153-.25 1.532-.751.378-.506.567-1.213.567-2.12 0-.811-.194-1.467-.581-1.968-.383-.506-.893-.759-1.531-.759-.625 0-1.128.248-1.511.745s-.574 1.208-.574 2.133zm13.002-3.78V169h-1.272v-6.351h-2.515l-.151 2.769c-.082 1.271-.296 2.181-.642 2.728-.342.546-.887.831-1.634.854h-.506v-1.114l.362-.028c.41-.045.704-.282.882-.711.178-.428.292-1.221.342-2.378l.137-3.165h4.997zm3.411 2.549h1.921c.838.009 1.501.228 1.989.657.488.428.731 1.009.731 1.743 0 .738-.25 1.33-.752 1.777-.501.447-1.175.67-2.023.67h-3.131v-7.396h1.265v2.549zm0 1.033v2.782h1.88c.474 0 .84-.121 1.1-.363.26-.246.39-.581.39-1.004 0-.411-.128-.746-.383-1.005-.251-.265-.604-.401-1.059-.41h-1.928zm10.288-1.559a.972.972 0 00-.397-.82c-.264-.205-.626-.308-1.087-.308-.446 0-.82.116-1.121.349-.296.232-.444.506-.444.82h-1.258c0-.643.269-1.169.807-1.579.538-.41 1.21-.615 2.016-.615.866 0 1.541.186 2.024.56.483.369.725.898.725 1.586 0 .333-.101.638-.301.916-.201.278-.486.499-.855.663.862.292 1.292.866 1.292 1.723 0 .679-.262 1.217-.786 1.613-.524.397-1.224.595-2.099.595-.852 0-1.556-.207-2.112-.622-.551-.419-.827-.985-.827-1.696h1.258c0 .361.159.67.478.93.324.255.725.383 1.203.383.484 0 .873-.112 1.169-.335.297-.223.445-.513.445-.868 0-.415-.126-.711-.376-.889-.246-.182-.631-.273-1.155-.273h-1.265v-1.067h1.374c.861-.022 1.292-.378 1.292-1.066zm2.707 1.606c0-.724.141-1.376.424-1.955.287-.578.683-1.025 1.189-1.34.511-.314 1.092-.471 1.743-.471 1.008 0 1.821.348 2.441 1.046.624.697.936 1.624.936 2.782v.089c0 .72-.139 1.367-.417 1.941a3.109 3.109 0 01-1.182 1.333c-.511.319-1.099.479-1.764.479-1.003 0-1.816-.349-2.44-1.046-.62-.697-.93-1.62-.93-2.769v-.089zm1.271.151c0 .82.19 1.479.568 1.975.383.497.893.745 1.531.745.643 0 1.153-.25 1.531-.751.379-.506.568-1.213.568-2.12 0-.811-.194-1.467-.581-1.968-.383-.506-.894-.759-1.532-.759-.624 0-1.128.248-1.51.745-.383.497-.575 1.208-.575 2.133zm7.164 3.616v-7.396h2.885c.985 0 1.739.173 2.263.519.529.342.793.845.793 1.511 0 .342-.103.651-.308.929-.205.274-.508.484-.909.629.447.105.804.31 1.073.616.274.305.41.67.41 1.093 0 .679-.25 1.199-.751 1.559-.497.36-1.201.54-2.113.54h-3.343zm1.265-3.247v2.228h2.092c.529 0 .923-.098 1.183-.293.264-.196.396-.472.396-.828 0-.738-.542-1.107-1.627-1.107h-2.044zm0-1.012h1.634c1.185 0 1.777-.346 1.777-1.039s-.56-1.05-1.681-1.073h-1.73v2.112zM902.18 169c-.073-.146-.132-.406-.178-.779-.588.61-1.29.916-2.106.916-.729 0-1.328-.205-1.797-.616a2.014 2.014 0 01-.698-1.572c0-.77.292-1.367.875-1.791.588-.428 1.413-.642 2.475-.642h1.23v-.581c0-.442-.132-.793-.396-1.053-.264-.264-.654-.397-1.169-.397-.451 0-.829.114-1.135.342-.305.228-.458.504-.458.827h-1.271c0-.369.13-.724.389-1.066.265-.346.62-.62 1.067-.82a3.6 3.6 0 011.483-.301c.852 0 1.52.214 2.003.642.483.424.734 1.01.752 1.757v3.405c0 .679.087 1.219.26 1.62V169h-1.326zm-2.099-.964a2.22 2.22 0 001.128-.307c.355-.206.613-.472.772-.8v-1.518h-.991c-1.549 0-2.324.454-2.324 1.36 0 .397.132.707.396.93.265.223.604.335 1.019.335zm10.534-5.407h-2.481V169h-1.265v-6.371h-2.433v-1.025h6.179v1.025zm3.753 6.508c-1.002 0-1.818-.328-2.447-.985-.629-.66-.943-1.542-.943-2.645v-.233c0-.733.139-1.387.417-1.962a3.286 3.286 0 011.175-1.353 2.96 2.96 0 011.641-.492c.962 0 1.709.317 2.242.95.533.633.8 1.54.8 2.721v.526h-5.011c.018.729.23 1.319.636 1.771.41.446.93.669 1.559.669.446 0 .824-.091 1.134-.273.31-.182.581-.424.814-.725l.772.602c-.62.952-1.549 1.429-2.789 1.429zm-.157-6.631c-.51 0-.939.187-1.285.56-.347.37-.561.889-.643 1.559h3.705v-.096c-.036-.642-.209-1.139-.519-1.49-.31-.355-.729-.533-1.258-.533zm10.575-.902V169h-1.271v-6.351h-2.516l-.15 2.769c-.082 1.271-.297 2.181-.643 2.728-.342.546-.886.831-1.634.854h-.506v-1.114l.363-.028c.41-.045.704-.282.882-.711.177-.428.291-1.221.341-2.378l.137-3.165h4.997zm3.411 2.549h1.921c.839.009 1.502.228 1.989.657.488.428.732 1.009.732 1.743 0 .738-.251 1.33-.752 1.777-.501.447-1.176.67-2.024.67h-3.13v-7.396h1.264v2.549zm0 1.033v2.782h1.88c.474 0 .841-.121 1.101-.363.26-.246.389-.581.389-1.004 0-.411-.127-.746-.382-1.005-.251-.265-.604-.401-1.06-.41h-1.928zm9.188 2.918c.451 0 .845-.136 1.182-.41.338-.273.524-.615.561-1.025h1.196a2.294 2.294 0 01-.437 1.21 2.876 2.876 0 01-1.08.916 3.087 3.087 0 01-1.422.342c-1.007 0-1.809-.335-2.406-1.005-.593-.675-.889-1.595-.889-2.762v-.212c0-.72.132-1.36.396-1.921.265-.56.643-.995 1.135-1.305.497-.31 1.082-.465 1.757-.465.829 0 1.518.248 2.064.745.552.497.846 1.142.882 1.934h-1.196c-.037-.478-.219-.87-.547-1.175-.324-.31-.725-.465-1.203-.465-.643 0-1.142.232-1.497.697-.351.46-.527 1.128-.527 2.003v.239c0 .853.176 1.509.527 1.969.351.46.852.69 1.504.69zm6.665-2.255h-.923V169h-1.272v-7.396h1.272v3.13h.827l2.488-3.13h1.532l-2.926 3.554L948.22 169h-1.607l-2.563-3.151zm4.771-.616c0-.724.142-1.376.424-1.955a3.226 3.226 0 011.19-1.34c.51-.314 1.091-.471 1.743-.471 1.007 0 1.82.348 2.44 1.046.625.697.937 1.624.937 2.782v.089c0 .72-.139 1.367-.417 1.941a3.117 3.117 0 01-1.183 1.333c-.51.319-1.098.479-1.764.479-1.002 0-1.816-.349-2.44-1.046-.62-.697-.93-1.62-.93-2.769v-.089zm1.272.151c0 .82.189 1.479.567 1.975.383.497.893.745 1.531.745.643 0 1.153-.25 1.532-.751.378-.506.567-1.213.567-2.12 0-.811-.194-1.467-.581-1.968-.383-.506-.893-.759-1.531-.759-.625 0-1.128.248-1.511.745s-.574 1.208-.574 2.133zm10.117 3.753c-1.003 0-1.818-.328-2.447-.985-.629-.66-.944-1.542-.944-2.645v-.233c0-.733.139-1.387.417-1.962a3.295 3.295 0 011.176-1.353 2.96 2.96 0 011.641-.492c.961 0 1.709.317 2.242.95.533.633.8 1.54.8 2.721v.526h-5.011c.018.729.23 1.319.636 1.771.41.446.929.669 1.558.669.447 0 .825-.091 1.135-.273.31-.182.581-.424.814-.725l.772.602c-.62.952-1.549 1.429-2.789 1.429zm-.157-6.631c-.511 0-.939.187-1.285.56-.347.37-.561.889-.643 1.559h3.705v-.096c-.036-.642-.21-1.139-.519-1.49-.31-.355-.73-.533-1.258-.533zm10.951 5.598c.451 0 .845-.136 1.183-.41a1.44 1.44 0 00.56-1.025h1.196a2.285 2.285 0 01-.437 1.21 2.876 2.876 0 01-1.08.916 3.087 3.087 0 01-1.422.342c-1.007 0-1.809-.335-2.406-1.005-.593-.675-.889-1.595-.889-2.762v-.212c0-.72.132-1.36.396-1.921.265-.56.643-.995 1.135-1.305.497-.31 1.083-.465 1.757-.465.829 0 1.518.248 2.065.745.551.497.845 1.142.881 1.934h-1.196c-.036-.478-.219-.87-.547-1.175-.323-.31-.724-.465-1.203-.465-.643 0-1.142.232-1.497.697-.351.46-.526 1.128-.526 2.003v.239c0 .853.175 1.509.526 1.969.351.46.852.69 1.504.69zm4.026-2.871c0-.724.142-1.376.424-1.955a3.226 3.226 0 011.19-1.34c.51-.314 1.091-.471 1.743-.471 1.007 0 1.82.348 2.44 1.046.624.697.937 1.624.937 2.782v.089c0 .72-.139 1.367-.417 1.941a3.117 3.117 0 01-1.183 1.333c-.51.319-1.098.479-1.764.479-1.002 0-1.816-.349-2.44-1.046-.62-.697-.93-1.62-.93-2.769v-.089zm1.272.151c0 .82.189 1.479.567 1.975.383.497.893.745 1.531.745.643 0 1.153-.25 1.532-.751.378-.506.567-1.213.567-2.12 0-.811-.194-1.467-.581-1.968-.383-.506-.893-.759-1.531-.759-.625 0-1.128.248-1.511.745s-.574 1.208-.574 2.133zm11.826-2.735h-3.411V169h-1.272v-7.396h4.683v1.045zm6.891-1.045V169h-1.272v-6.351h-2.516l-.15 2.769c-.082 1.271-.296 2.181-.643 2.728-.341.546-.886.831-1.633.854h-.506v-1.114l.362-.028c.41-.045.704-.282.882-.711.178-.428.292-1.221.342-2.378l.136-3.165h4.998zm6.601 7.396c-.08-.146-.14-.406-.18-.779-.59.61-1.29.916-2.108.916-.729 0-1.328-.205-1.798-.616-.465-.414-.697-.938-.697-1.572 0-.77.292-1.367.875-1.791.588-.428 1.413-.642 2.478-.642h1.23v-.581c0-.442-.14-.793-.4-1.053-.26-.264-.65-.397-1.168-.397-.452 0-.83.114-1.135.342-.306.228-.458.504-.458.827h-1.272c0-.369.13-.724.39-1.066a2.7 2.7 0 011.066-.82 3.608 3.608 0 011.484-.301c.853 0 1.523.214 2.003.642.48.424.73 1.01.75 1.757v3.405c0 .679.09 1.219.26 1.62V169h-1.32zm-2.103-.964c.396 0 .773-.102 1.123-.307.36-.206.62-.472.78-.8v-1.518h-.99c-1.554 0-2.328.454-2.328 1.36 0 .397.132.707.396.93.264.223.604.335 1.019.335zm6.523-6.432v6.364h2.71v-6.364h1.27v6.364h2.7v-6.364h1.27V169h-9.22v-7.396h1.27zm13.01 7.533c-1 0-1.81-.328-2.44-.985-.63-.66-.95-1.542-.95-2.645v-.233c0-.733.14-1.387.42-1.962a3.22 3.22 0 011.18-1.353c.5-.328 1.05-.492 1.64-.492.96 0 1.71.317 2.24.95.53.633.8 1.54.8 2.721v.526h-5.01c.02.729.23 1.319.63 1.771.41.446.93.669 1.56.669.45 0 .83-.091 1.14-.273a2.8 2.8 0 00.81-.725l.77.602c-.62.952-1.55 1.429-2.79 1.429zm-.15-6.631a1.7 1.7 0 00-1.29.56c-.35.37-.56.889-.64 1.559h3.7v-.096c-.03-.642-.21-1.139-.52-1.49-.31-.355-.72-.533-1.25-.533zm10.55 6.494h-1.26v-3.158h-3.4V169h-1.27v-7.396h1.27v3.206h3.4v-3.206h1.26V169zm6.82-7.396h1.27V169h-1.27v-5.394l-3.41 5.394h-1.26v-7.396h1.26v5.4l3.41-5.4zm6.37 7.533c-1 0-1.82-.328-2.45-.985-.63-.66-.94-1.542-.94-2.645v-.233c0-.733.14-1.387.41-1.962.29-.578.68-1.029 1.18-1.353a2.961 2.961 0 011.64-.492c.96 0 1.71.317 2.24.95.54.633.8 1.54.8 2.721v.526h-5.01c.02.729.23 1.319.64 1.771.41.446.93.669 1.56.669.44 0 .82-.091 1.13-.273a2.8 2.8 0 00.81-.725l.78.602c-.62.952-1.55 1.429-2.79 1.429zm-.16-6.631c-.51 0-.94.187-1.28.56-.35.37-.57.889-.65 1.559h3.71v-.096c-.04-.642-.21-1.139-.52-1.49-.31-.355-.73-.533-1.26-.533zM848.757 201h-1.319v-8.873h-4.909V201h-1.312v-9.953h7.54V201zm1.859-3.767c0-.724.141-1.376.424-1.955a3.23 3.23 0 011.189-1.34c.511-.314 1.092-.471 1.744-.471 1.007 0 1.82.348 2.44 1.046.624.697.937 1.624.937 2.782v.089c0 .72-.139 1.367-.417 1.941a3.117 3.117 0 01-1.183 1.333c-.51.319-1.098.479-1.764.479-1.002 0-1.816-.349-2.44-1.046-.62-.697-.93-1.62-.93-2.769v-.089zm1.272.151c0 .82.189 1.479.567 1.975.383.497.893.745 1.531.745.643 0 1.153-.25 1.532-.751.378-.506.567-1.213.567-2.12 0-.811-.194-1.467-.581-1.968-.383-.506-.893-.759-1.531-.759-.625 0-1.128.248-1.511.745s-.574 1.208-.574 2.133zm13.002-3.78V201h-1.272v-6.351h-2.515l-.151 2.769c-.082 1.271-.296 2.181-.642 2.728-.342.546-.887.831-1.634.854h-.506v-1.114l.362-.028c.41-.045.704-.282.882-.711.178-.428.292-1.221.342-2.378l.137-3.165h4.997zm6.815 0h1.265V201h-1.265v-5.394L868.294 201h-1.265v-7.396h1.265v5.4l3.411-5.4zm8.791 1.025h-2.481V201h-1.265v-6.371h-2.434v-1.025h6.18v1.025zm6.016-1.025h1.264V201h-1.264v-5.394L883.101 201h-1.265v-7.396h1.265v5.4l3.411-5.4zm5.598 4.245h-.922V201h-1.272v-7.396h1.272v3.13h.827l2.488-3.13h1.531l-2.926 3.554L896.28 201h-1.606l-2.564-3.151zm9.824 3.151c-.073-.146-.133-.406-.178-.779-.588.61-1.29.916-2.106.916-.729 0-1.328-.205-1.797-.616a2.014 2.014 0 01-.698-1.572c0-.77.292-1.367.875-1.791.588-.428 1.413-.642 2.475-.642h1.23v-.581c0-.442-.132-.793-.396-1.053-.264-.264-.654-.397-1.169-.397-.451 0-.83.114-1.135.342-.305.228-.458.504-.458.827h-1.271c0-.369.13-.724.389-1.066.265-.346.62-.62 1.067-.82a3.6 3.6 0 011.483-.301c.852 0 1.52.214 2.003.642.483.424.734 1.01.752 1.757v3.405c0 .679.087 1.219.26 1.62V201h-1.326zm-2.099-.964c.396 0 .772-.102 1.128-.307.355-.206.613-.472.772-.8v-1.518h-.991c-1.549 0-2.324.454-2.324 1.36 0 .397.132.707.396.93.265.223.604.335 1.019.335zm10.924-2.187h-.923V201h-1.272v-7.396h1.272v3.13h.827l2.488-3.13h1.532l-2.926 3.554 3.172 3.842h-1.607l-2.563-3.151zm4.771-.616c0-.724.142-1.376.424-1.955a3.226 3.226 0 011.19-1.34c.51-.314 1.091-.471 1.743-.471 1.007 0 1.82.348 2.44 1.046.624.697.937 1.624.937 2.782v.089c0 .72-.139 1.367-.417 1.941a3.117 3.117 0 01-1.183 1.333c-.51.319-1.098.479-1.764.479-1.002 0-1.816-.349-2.44-1.046-.62-.697-.93-1.62-.93-2.769v-.089zm1.272.151c0 .82.189 1.479.567 1.975.383.497.893.745 1.531.745.643 0 1.153-.25 1.532-.751.378-.506.567-1.213.567-2.12 0-.811-.194-1.467-.581-1.968-.383-.506-.893-.759-1.531-.759-.625 0-1.128.248-1.511.745s-.574 1.208-.574 2.133zM929.893 201h-1.265v-3.158h-3.398V201h-1.271v-7.396h1.271v3.206h3.398v-3.206h1.265V201zm1.763-3.562c0-1.235.24-2.205.718-2.912.479-.706 1.135-1.059 1.969-1.059.387 0 .727.066 1.018.198V190.5h1.265v3.206c.319-.159.693-.239 1.121-.239.839 0 1.497.353 1.976 1.059.478.707.717 1.725.717 3.056 0 1.089-.239 1.955-.717 2.598-.474.642-1.128.964-1.962.964-.442 0-.821-.073-1.135-.219v2.919h-1.265v-2.899c-.3.132-.645.199-1.032.199-.829 0-1.483-.322-1.962-.964-.474-.643-.711-1.522-.711-2.639v-.103zm7.52 0c0-.929-.16-1.649-.479-2.16-.319-.515-.759-.772-1.319-.772-.287 0-.538.045-.752.137v5.352c.205.078.46.116.766.116.565 0 1.002-.218 1.312-.656.315-.437.472-1.11.472-2.017zm-6.255.144c0 .829.148 1.458.444 1.887.296.428.723.642 1.279.642.264 0 .503-.041.717-.123v-5.366a1.889 1.889 0 00-.704-.116c-.556 0-.984.248-1.285.745-.301.497-.451 1.274-.451 2.331zm13.952-3.978h1.265V201h-1.265v-5.394L943.462 201h-1.265v-7.396h1.265v5.4l3.411-5.4zm3.233 6.364l.438-.54c.492-.638.772-1.595.841-2.871l.116-2.953h4.765v6.364h.95v3.206h-1.265V201h-5.161v2.174h-1.265l.007-3.206h.574zm1.498 0h3.397v-5.196h-2.276l-.076 1.764c-.077 1.472-.426 2.616-1.045 3.432zm10.083 1.169c-1.003 0-1.819-.328-2.448-.985-.629-.66-.943-1.542-.943-2.645v-.233c0-.733.139-1.387.417-1.962a3.281 3.281 0 011.176-1.353 2.957 2.957 0 011.64-.492c.962 0 1.709.317 2.242.95.534.633.8 1.54.8 2.721v.526h-5.01c.018.729.23 1.319.635 1.771.41.446.93.669 1.559.669.446 0 .825-.091 1.135-.273.31-.182.581-.424.813-.725l.773.602c-.62.952-1.55 1.429-2.789 1.429zm-.158-6.631c-.51 0-.939.187-1.285.56-.346.37-.56.889-.642 1.559h3.705v-.096c-.037-.642-.21-1.139-.52-1.49-.31-.355-.729-.533-1.258-.533zM972.084 201h-1.265v-3.158h-3.397V201h-1.272v-7.396h1.272v3.206h3.397v-3.206h1.265V201zm2.146-7.396h1.272v6.364h3.404v-6.364h1.265v6.364h.882l-.123 3.226h-1.135V201h-5.565v-7.396zm12.975 0h1.265V201h-1.265v-5.394L983.794 201h-1.265v-7.396h1.265v5.4l3.411-5.4zm7.861 7.396c-.073-.146-.132-.406-.177-.779-.588.61-1.29.916-2.106.916-.729 0-1.328-.205-1.798-.616a2.016 2.016 0 01-.697-1.572c0-.77.292-1.367.875-1.791.588-.428 1.413-.642 2.475-.642h1.23v-.581c0-.442-.132-.793-.396-1.053-.265-.264-.654-.397-1.169-.397-.451 0-.83.114-1.135.342-.305.228-.458.504-.458.827h-1.272c0-.369.13-.724.39-1.066.264-.346.62-.62 1.067-.82a3.6 3.6 0 011.483-.301c.852 0 1.52.214 2.003.642.483.424.734 1.01.752 1.757v3.405c0 .679.086 1.219.26 1.62V201h-1.327zm-2.098-.964c.396 0 .772-.102 1.128-.307.355-.206.613-.472.772-.8v-1.518h-.991c-1.55 0-2.324.454-2.324 1.36 0 .397.132.707.396.93.265.223.604.335 1.019.335zm11.212-6.432V201h-1.27v-6.351h-2.52l-.15 2.769c-.08 1.271-.295 2.181-.641 2.728-.342.546-.887.831-1.634.854h-.506v-1.114l.362-.028c.41-.045.704-.282.882-.711.178-.428.292-1.221.342-2.378l.137-3.165h4.998zm3.41 2.549h1.92c.84.009 1.5.228 1.99.657.49.428.73 1.009.73 1.743 0 .738-.25 1.33-.75 1.777-.5.447-1.18.67-2.02.67h-3.13v-7.396h1.26v2.549zm0 1.033v2.782h1.88c.47 0 .84-.121 1.1-.363.26-.246.39-.581.39-1.004 0-.411-.13-.746-.38-1.005-.25-.265-.61-.401-1.06-.41h-1.93zm12.26 3.814h-1.26v-3.158h-3.4V201h-1.27v-7.396h1.27v3.206h3.4v-3.206h1.26V201zm1.71-3.767c0-.724.14-1.376.42-1.955.29-.578.68-1.025 1.19-1.34.51-.314 1.09-.471 1.74-.471 1.01 0 1.82.348 2.44 1.046.63.697.94 1.624.94 2.782v.089c0 .72-.14 1.367-.42 1.941-.27.57-.67 1.014-1.18 1.333-.51.319-1.1.479-1.76.479-1.01 0-1.82-.349-2.44-1.046-.62-.697-.93-1.62-.93-2.769v-.089zm1.27.151c0 .82.19 1.479.56 1.975.39.497.9.745 1.54.745s1.15-.25 1.53-.751c.38-.506.56-1.213.56-2.12 0-.811-.19-1.467-.58-1.968-.38-.506-.89-.759-1.53-.759-.62 0-1.13.248-1.51.745-.38.497-.57 1.208-.57 2.133zm10.01 2.72a1.8 1.8 0 001.18-.41c.34-.273.53-.615.56-1.025h1.2c-.02.424-.17.827-.44 1.21s-.63.688-1.08.916c-.44.228-.92.342-1.42.342-1.01 0-1.81-.335-2.4-1.005-.6-.675-.89-1.595-.89-2.762v-.212c0-.72.13-1.36.39-1.921.27-.56.65-.995 1.14-1.305.49-.31 1.08-.465 1.75-.465.83 0 1.52.248 2.07.745.55.497.84 1.142.88 1.934h-1.2c-.03-.478-.21-.87-.54-1.175-.33-.31-.73-.465-1.21-.465-.64 0-1.14.232-1.49.697-.35.46-.53 1.128-.53 2.003v.239c0 .853.18 1.509.53 1.969.35.46.85.69 1.5.69zm9.86-5.475h-2.48V201h-1.27v-6.371h-2.43v-1.025h6.18v1.025zm6.01-1.025h1.27V201h-1.27v-5.394L1045.3 201h-1.26v-7.396h1.26v5.4l3.41-5.4zM848.757 233h-1.319v-8.873h-4.909V233h-1.312v-9.953h7.54V233zm4.614-1.853l1.723-5.543h1.353l-2.973 8.538c-.461 1.23-1.192 1.845-2.195 1.845l-.239-.02-.472-.089v-1.025l.342.027c.429 0 .761-.087.998-.26.242-.173.44-.49.595-.95l.28-.752-2.638-7.314h1.38l1.846 5.543zm7.458-5.12c.93 0 1.673.313 2.229.937.56.62.84 1.438.84 2.454v.116c0 .697-.134 1.322-.403 1.873a3.013 3.013 0 01-1.162 1.279c-.501.3-1.08.451-1.736.451-.994 0-1.794-.331-2.4-.991-.606-.666-.909-1.557-.909-2.673v-.616c0-1.554.287-2.789.861-3.705.579-.916 1.431-1.474 2.557-1.674.638-.114 1.069-.253 1.292-.417a.796.796 0 00.335-.677h1.039c0 .569-.13 1.014-.39 1.333-.255.319-.665.544-1.23.677l-.943.211c-.752.178-1.317.479-1.696.903-.373.419-.617.98-.731 1.681.67-.774 1.486-1.162 2.447-1.162zm-.246 1.039c-.62 0-1.112.21-1.477.629-.364.415-.546.992-.546 1.73v.109c0 .793.182 1.422.546 1.887.37.46.866.69 1.491.69.629 0 1.125-.232 1.49-.697.364-.465.547-1.144.547-2.037 0-.697-.185-1.256-.554-1.675-.365-.424-.864-.636-1.497-.636zm10.801-1.462V233h-1.272v-6.351h-2.515l-.151 2.769c-.082 1.271-.296 2.181-.642 2.728-.342.546-.887.831-1.634.854h-.506v-1.114l.362-.028c.411-.045.704-.282.882-.711.178-.428.292-1.221.342-2.378l.137-3.165h4.997zm6.815 0h1.265V233h-1.265v-5.394L874.788 233h-1.265v-7.396h1.265v5.4l3.411-5.4zm8.88 7.396h-1.271v-2.68a6.703 6.703 0 01-1.709.219c-.925 0-1.632-.237-2.12-.711-.483-.474-.729-1.148-.738-2.023v-2.208h1.265v2.249c.023 1.103.554 1.654 1.593 1.654.583 0 1.153-.073 1.709-.219v-3.677h1.271V233zm8.073 0h-1.264v-3.158h-3.398V233h-1.271v-7.396h1.271v3.206h3.398v-3.206h1.264V233zm6.604 0c-.073-.146-.132-.406-.178-.779-.588.61-1.29.916-2.105.916-.73 0-1.329-.205-1.798-.616-.465-.414-.697-.938-.697-1.572 0-.77.291-1.367.875-1.791.587-.428 1.412-.642 2.474-.642h1.231v-.581c0-.442-.133-.793-.397-1.053-.264-.264-.654-.397-1.169-.397-.451 0-.829.114-1.135.342-.305.228-.458.504-.458.827h-1.271c0-.369.13-.724.39-1.066.264-.346.619-.62 1.066-.82a3.604 3.604 0 011.483-.301c.853 0 1.52.214 2.003.642.483.424.734 1.01.752 1.757v3.405c0 .679.087 1.219.26 1.62V233h-1.326zm-2.099-.964a2.22 2.22 0 001.128-.307c.356-.206.613-.472.773-.8v-1.518h-.992c-1.549 0-2.324.454-2.324 1.36 0 .397.132.707.397.93.264.223.604.335 1.018.335zm10.801-6.432V233h-1.271v-2.878h-1.908L905.536 233h-1.367l1.859-3.069c-.474-.174-.838-.44-1.093-.8a2.19 2.19 0 01-.376-1.272c0-.674.253-1.216.758-1.627.506-.414 1.183-.624 2.031-.628h3.11zm-4.628 2.269c0 .36.123.652.369.875.246.219.572.33.978.335h2.01v-2.454h-1.819c-.469 0-.843.116-1.121.349a1.1 1.1 0 00-.417.895zm9.796 1.36c0-.724.141-1.376.424-1.955.287-.578.683-1.025 1.189-1.34.511-.314 1.092-.471 1.743-.471 1.008 0 1.821.348 2.441 1.046.624.697.936 1.624.936 2.782v.089c0 .72-.139 1.367-.417 1.941a3.109 3.109 0 01-1.182 1.333c-.511.319-1.099.479-1.764.479-1.003 0-1.816-.349-2.44-1.046-.62-.697-.93-1.62-.93-2.769v-.089zm1.271.151c0 .82.19 1.479.568 1.975.383.497.893.745 1.531.745.643 0 1.153-.25 1.531-.751.379-.506.568-1.213.568-2.12 0-.811-.194-1.467-.581-1.968-.383-.506-.894-.759-1.532-.759-.624 0-1.128.248-1.51.745-.383.497-.575 1.208-.575 2.133zm6.775.054c0-1.235.239-2.205.718-2.912.478-.706 1.134-1.059 1.968-1.059.388 0 .727.066 1.019.198V222.5h1.265v3.206c.319-.159.692-.239 1.121-.239.838 0 1.497.353 1.975 1.059.479.707.718 1.725.718 3.056 0 1.089-.239 1.955-.718 2.598-.474.642-1.128.964-1.962.964-.442 0-.82-.073-1.134-.219v2.919h-1.265v-2.899a2.547 2.547 0 01-1.032.199c-.83 0-1.484-.322-1.962-.964-.474-.643-.711-1.522-.711-2.639v-.103zm7.519 0c0-.929-.159-1.649-.478-2.16-.319-.515-.759-.772-1.319-.772a1.89 1.89 0 00-.752.137v5.352c.205.078.46.116.765.116.565 0 1.003-.218 1.313-.656.314-.437.471-1.11.471-2.017zm-6.254.144c0 .829.148 1.458.444 1.887.296.428.722.642 1.278.642.265 0 .504-.041.718-.123v-5.366a1.889 1.889 0 00-.704-.116c-.556 0-.985.248-1.285.745-.301.497-.451 1.274-.451 2.331zm12.236 3.555c-1.003 0-1.819-.328-2.447-.985-.629-.66-.944-1.542-.944-2.645v-.233c0-.733.139-1.387.417-1.962a3.295 3.295 0 011.176-1.353 2.96 2.96 0 011.641-.492c.961 0 1.709.317 2.242.95.533.633.8 1.54.8 2.721v.526h-5.011c.018.729.23 1.319.636 1.771.41.446.929.669 1.558.669.447 0 .825-.091 1.135-.273.31-.182.581-.424.813-.725l.773.602c-.62.952-1.55 1.429-2.789 1.429zm-.157-6.631c-.511 0-.939.187-1.286.56-.346.37-.56.889-.642 1.559h3.705v-.096c-.036-.642-.21-1.139-.52-1.49-.309-.355-.729-.533-1.257-.533zm10.759 2.878c0 1.125-.257 2.032-.772 2.72-.515.689-1.212 1.033-2.092 1.033-.898 0-1.604-.285-2.119-.855v3.562h-1.265v-10.24h1.156l.061.82c.515-.638 1.231-.957 2.147-.957.888 0 1.59.335 2.105 1.005.52.67.779 1.602.779 2.796v.116zm-1.264-.144c0-.834-.178-1.492-.533-1.975-.356-.483-.844-.725-1.463-.725-.766 0-1.34.34-1.723 1.019v3.534c.378.674.957 1.011 1.736 1.011.606 0 1.087-.239 1.443-.717.36-.483.54-1.199.54-2.147zm7.827-2.611h-2.482V233h-1.264v-6.371h-2.434v-1.025h6.18v1.025zm5.687 6.371c-.073-.146-.132-.406-.177-.779-.588.61-1.29.916-2.106.916-.729 0-1.328-.205-1.798-.616-.465-.414-.697-.938-.697-1.572 0-.77.292-1.367.875-1.791.588-.428 1.413-.642 2.475-.642h1.23v-.581c0-.442-.132-.793-.396-1.053-.265-.264-.654-.397-1.169-.397-.451 0-.83.114-1.135.342-.305.228-.458.504-.458.827h-1.272c0-.369.13-.724.39-1.066.264-.346.62-.62 1.067-.82a3.6 3.6 0 011.483-.301c.852 0 1.52.214 2.003.642.483.424.734 1.01.752 1.757v3.405c0 .679.086 1.219.26 1.62V233h-1.327zm-2.098-.964c.396 0 .772-.102 1.128-.307.355-.206.613-.472.772-.8v-1.518h-.991c-1.55 0-2.324.454-2.324 1.36 0 .397.132.707.396.93.265.223.604.335 1.019.335zm8.558-.068l.438-.54c.492-.638.772-1.595.841-2.871l.116-2.953h4.765v6.364h.95v3.206h-1.265V233h-5.161v2.174h-1.265l.007-3.206h.574zm1.497 0h3.398v-5.196h-2.276l-.076 1.764c-.077 1.472-.426 2.616-1.046 3.432zm13.078-6.364V233h-1.272v-6.351h-2.516l-.15 2.769c-.082 1.271-.296 2.181-.643 2.728-.341.546-.886.831-1.633.854h-.506v-1.114l.362-.028c.41-.045.704-.282.882-.711.178-.428.292-1.221.342-2.378l.136-3.165h4.998zm7.683 0V233h-1.271v-2.878h-1.908L983.821 233h-1.367l1.859-3.069c-.473-.174-.838-.44-1.093-.8a2.19 2.19 0 01-.376-1.272c0-.674.253-1.216.759-1.627.505-.414 1.182-.624 2.03-.628h3.11zm-4.628 2.269c0 .36.123.652.369.875.246.219.572.33.978.335h2.01v-2.454h-1.819c-.469 0-.843.116-1.121.349a1.1 1.1 0 00-.417.895zM1000.3 233h-1.269v-6.351h-3.404V233h-1.272v-7.396h5.945V233zm1.69-3.767c0-.724.14-1.376.43-1.955.28-.578.68-1.025 1.18-1.34.51-.314 1.1-.471 1.75-.471 1 0 1.82.348 2.44 1.046.62.697.93 1.624.93 2.782v.089c0 .72-.13 1.367-.41 1.941-.28.57-.67 1.014-1.19 1.333-.51.319-1.09.479-1.76.479-1 0-1.81-.349-2.44-1.046-.62-.697-.93-1.62-.93-2.769v-.089zm1.27.151c0 .82.19 1.479.57 1.975.38.497.89.745 1.53.745s1.15-.25 1.53-.751c.38-.506.57-1.213.57-2.12 0-.811-.19-1.467-.58-1.968-.38-.506-.89-.759-1.53-.759-.63 0-1.13.248-1.51.745-.39.497-.58 1.208-.58 2.133zm10.02 2.72c.45 0 .84-.136 1.18-.41.34-.273.52-.615.56-1.025h1.2a2.35 2.35 0 01-.44 1.21c-.27.383-.63.688-1.08.916a3.09 3.09 0 01-1.42.342c-1.01 0-1.81-.335-2.41-1.005-.59-.675-.89-1.595-.89-2.762v-.212c0-.72.13-1.36.4-1.921.26-.56.64-.995 1.13-1.305.5-.31 1.09-.465 1.76-.465.83 0 1.52.248 2.06.745.56.497.85 1.142.89 1.934h-1.2c-.04-.478-.22-.87-.55-1.175-.32-.31-.72-.465-1.2-.465-.64 0-1.14.232-1.5.697-.35.46-.52 1.128-.52 2.003v.239c0 .853.17 1.509.52 1.969.35.46.86.69 1.51.69zm9.85-5.475h-2.48V233h-1.26v-6.371h-2.43v-1.025h6.17v1.025zm5.69 6.371c-.07-.146-.13-.406-.18-.779-.58.61-1.29.916-2.1.916-.73 0-1.33-.205-1.8-.616-.46-.414-.7-.938-.7-1.572 0-.77.3-1.367.88-1.791.59-.428 1.41-.642 2.47-.642h1.23v-.581c0-.442-.13-.793-.39-1.053-.27-.264-.66-.397-1.17-.397-.45 0-.83.114-1.14.342-.3.228-.45.504-.45.827h-1.28c0-.369.13-.724.39-1.066.27-.346.62-.62 1.07-.82a3.61 3.61 0 011.48-.301c.86 0 1.52.214 2.01.642.48.424.73 1.01.75 1.757v3.405c0 .679.09 1.219.26 1.62V233h-1.33zm-2.1-.964c.4 0 .78-.102 1.13-.307.36-.206.61-.472.77-.8v-1.518h-.99c-1.55 0-2.32.454-2.32 1.36 0 .397.13.707.4.93.26.223.6.335 1.01.335zm5.27.964v-7.396h2.88c.99 0 1.74.173 2.26.519.53.342.8.845.8 1.511 0 .342-.1.651-.31.929-.2.274-.51.484-.91.629.45.105.81.31 1.07.616.28.305.41.67.41 1.093 0 .679-.25 1.199-.75 1.559-.49.36-1.2.54-2.11.54h-3.34zm1.26-3.247v2.228h2.09c.53 0 .93-.098 1.19-.293.26-.196.39-.472.39-.828 0-.738-.54-1.107-1.62-1.107h-2.05zm0-1.012h1.64c1.18 0 1.77-.346 1.77-1.039s-.56-1.05-1.68-1.073h-1.73v2.112zm7.92-3.137v6.364h2.71v-6.364h1.27v6.364h2.7v-6.364h1.27v6.364h1.04l-.13 3.226h-1.13V233h-9v-7.396h1.27zm15.06 0h1.27V233h-1.27v-5.394l-3.41 5.394h-1.26v-7.396h1.26v5.4l3.41-5.4zm5.6 4.245h-.92V233h-1.27v-7.396h1.27v3.13h.83l2.49-3.13h1.53l-2.93 3.554L1066 233h-1.6l-2.57-3.151zm4.77-.616c0-.724.15-1.376.43-1.955.29-.578.68-1.025 1.19-1.34.51-.314 1.09-.471 1.74-.471 1.01 0 1.82.348 2.44 1.046.63.697.94 1.624.94 2.782v.089c0 .72-.14 1.367-.42 1.941-.27.57-.67 1.014-1.18 1.333-.51.319-1.1.479-1.77.479-1 0-1.81-.349-2.44-1.046-.62-.697-.93-1.62-.93-2.769v-.089zm1.28.151c0 .82.19 1.479.56 1.975.39.497.9.745 1.53.745.65 0 1.16-.25 1.54-.751.37-.506.56-1.213.56-2.12 0-.811-.19-1.467-.58-1.968-.38-.506-.89-.759-1.53-.759-.62 0-1.13.248-1.51.745-.38.497-.57 1.208-.57 2.133zm7.16 3.616v-7.396h2.88c.99 0 1.74.173 2.27.519.53.342.79.845.79 1.511 0 .342-.1.651-.31.929-.2.274-.51.484-.91.629.45.105.81.31 1.08.616.27.305.41.67.41 1.093 0 .679-.25 1.199-.75 1.559-.5.36-1.21.54-2.12.54h-3.34zm1.26-3.247v2.228h2.1c.53 0 .92-.098 1.18-.293.26-.196.4-.472.4-.828 0-.738-.55-1.107-1.63-1.107h-2.05zm0-1.012h1.64c1.18 0 1.78-.346 1.78-1.039s-.56-1.05-1.69-1.073h-1.73v2.112zM88.367 159.047V169h-1.32v-4.122a9.67 9.67 0 01-1.305.287c-.392.05-.838.075-1.34.075-1.134 0-1.978-.246-2.529-.738-.551-.492-.834-1.246-.848-2.263v-3.192h1.32v3.158c.004.693.162 1.192.471 1.497.315.305.843.458 1.586.458.866 0 1.748-.123 2.646-.369v-4.744h1.32zm7.67 3.582h-2.481V169H92.29v-6.371h-2.434v-1.025h6.18v1.025zm.608 2.604c0-.724.142-1.376.424-1.955.287-.578.684-1.025 1.19-1.34.51-.314 1.091-.471 1.743-.471 1.007 0 1.821.348 2.44 1.046.625.697.937 1.624.937 2.782v.089c0 .72-.139 1.367-.417 1.941a3.117 3.117 0 01-1.183 1.333c-.51.319-1.098.479-1.763.479-1.003 0-1.817-.349-2.44-1.046-.62-.697-.93-1.62-.93-2.769v-.089zm1.272.151c0 .82.19 1.479.567 1.975.383.497.894.745 1.532.745.642 0 1.153-.25 1.531-.751.378-.506.567-1.213.567-2.12 0-.811-.193-1.467-.581-1.968-.383-.506-.893-.759-1.531-.759-.624 0-1.128.248-1.51.745-.384.497-.575 1.208-.575 2.133zm14.779 1.941l2.516-5.721h1.579V169h-1.265v-5.38l-2.392 5.38h-.875l-2.441-5.496V169h-1.264v-7.396h1.64l2.502 5.721zm7.513-3.172h1.921c.838.009 1.502.228 1.989.657.488.428.732 1.009.732 1.743 0 .738-.251 1.33-.752 1.777-.502.447-1.176.67-2.024.67h-3.131v-7.396h1.265v2.549zm7.28 4.847h-1.271v-7.396h1.271V169zm-7.28-3.814v2.782h1.88c.474 0 .841-.121 1.1-.363.26-.246.39-.581.39-1.004 0-.411-.128-.746-.383-1.005-.25-.265-.604-.401-1.059-.41h-1.928zm12.899 2.782l.438-.54c.492-.638.772-1.595.841-2.871l.116-2.953h4.765v6.364h.95v3.206h-1.265V169h-5.161v2.174h-1.265l.007-3.206h.574zm1.497 0h3.398v-5.196h-2.276l-.076 1.764c-.077 1.472-.426 2.616-1.046 3.432zm10.083 1.169c-1.002 0-1.818-.328-2.447-.985-.629-.66-.943-1.542-.943-2.645v-.233c0-.733.139-1.387.417-1.962a3.281 3.281 0 011.176-1.353 2.954 2.954 0 011.64-.492c.962 0 1.709.317 2.242.95.534.633.8 1.54.8 2.721v.526h-5.011c.019.729.231 1.319.636 1.771.41.446.93.669 1.559.669.446 0 .825-.091 1.135-.273a2.85 2.85 0 00.813-.725l.773.602c-.62.952-1.55 1.429-2.79 1.429zm-.157-6.631c-.51 0-.939.187-1.285.56-.346.37-.56.889-.642 1.559h3.705v-.096c-.037-.642-.21-1.139-.52-1.49-.31-.355-.729-.533-1.258-.533zm10.575-.902V169h-1.271v-6.351h-2.516l-.15 2.769c-.082 1.271-.296 2.181-.643 2.728-.341.546-.886.831-1.633.854h-.506v-1.114l.362-.028c.41-.045.704-.282.882-.711.178-.428.292-1.221.342-2.378l.136-3.165h4.997zm6.597 7.396c-.073-.146-.132-.406-.178-.779-.587.61-1.289.916-2.105.916-.729 0-1.329-.205-1.798-.616-.465-.414-.697-.938-.697-1.572 0-.77.291-1.367.875-1.791.588-.428 1.413-.642 2.474-.642h1.231v-.581c0-.442-.132-.793-.397-1.053-.264-.264-.654-.397-1.169-.397-.451 0-.829.114-1.134.342-.306.228-.458.504-.458.827h-1.272c0-.369.13-.724.39-1.066a2.7 2.7 0 011.066-.82 3.605 3.605 0 011.484-.301c.852 0 1.52.214 2.003.642.483.424.733 1.01.752 1.757v3.405c0 .679.086 1.219.259 1.62V169h-1.326zm-2.099-.964a2.22 2.22 0 001.128-.307c.356-.206.613-.472.773-.8v-1.518h-.991c-1.55 0-2.325.454-2.325 1.36 0 .397.133.707.397.93.264.223.604.335 1.018.335zm8.217 1.101c-1.002 0-1.818-.328-2.447-.985-.629-.66-.943-1.542-.943-2.645v-.233c0-.733.139-1.387.417-1.962a3.286 3.286 0 011.175-1.353 2.96 2.96 0 011.641-.492c.962 0 1.709.317 2.242.95.533.633.8 1.54.8 2.721v.526h-5.011c.019.729.23 1.319.636 1.771.41.446.93.669 1.559.669.446 0 .825-.091 1.134-.273.31-.182.581-.424.814-.725l.772.602c-.619.952-1.549 1.429-2.789 1.429zm-.157-6.631c-.51 0-.939.187-1.285.56-.346.37-.561.889-.643 1.559h3.705v-.096c-.036-.642-.209-1.139-.519-1.49-.31-.355-.729-.533-1.258-.533zm8.771 4.819l2.515-5.721h1.579V169h-1.264v-5.38l-2.393 5.38h-.875l-2.44-5.496V169h-1.265v-7.396h1.641l2.502 5.721zM470.11 171.44h-1.305V169h-7.144v2.447h-1.312l-.007-3.52h.813c.429-.483.768-1.13 1.019-1.942.255-.815.415-1.709.478-2.679l.219-4.259h5.954v8.88h1.299l-.014 3.513zm-7.458-3.513h4.854v-7.8h-3.37l-.144 2.926c-.059 1.144-.212 2.119-.458 2.926-.241.806-.535 1.456-.882 1.948zm8.497-2.694c0-.724.142-1.376.424-1.955a3.226 3.226 0 011.19-1.34c.51-.314 1.091-.471 1.743-.471 1.007 0 1.82.348 2.44 1.046.625.697.937 1.624.937 2.782v.089c0 .72-.139 1.367-.417 1.941a3.117 3.117 0 01-1.183 1.333c-.51.319-1.098.479-1.763.479-1.003 0-1.817-.349-2.441-1.046-.62-.697-.93-1.62-.93-2.769v-.089zm1.272.151c0 .82.189 1.479.567 1.975.383.497.894.745 1.532.745.642 0 1.153-.25 1.531-.751.378-.506.567-1.213.567-2.12 0-.811-.194-1.467-.581-1.968-.383-.506-.893-.759-1.531-.759-.624 0-1.128.248-1.511.745s-.574 1.208-.574 2.133zm10.295-3.357c.93 0 1.672.313 2.228.937.561.62.841 1.438.841 2.454v.116c0 .697-.134 1.322-.403 1.873a3.013 3.013 0 01-1.162 1.279c-.502.3-1.08.451-1.737.451-.993 0-1.793-.331-2.399-.991-.606-.666-.909-1.557-.909-2.673v-.616c0-1.554.287-2.789.861-3.705.579-.916 1.431-1.474 2.557-1.674.638-.114 1.068-.253 1.292-.417a.796.796 0 00.335-.677h1.039c0 .569-.13 1.014-.39 1.333-.255.319-.665.544-1.23.677l-.944.211c-.752.178-1.317.479-1.695.903-.374.419-.618.98-.731 1.681.669-.774 1.485-1.162 2.447-1.162zm-.246 1.039c-.62 0-1.112.21-1.477.629-.364.415-.547.992-.547 1.73v.109c0 .793.183 1.422.547 1.887.369.46.866.69 1.49.69.629 0 1.126-.232 1.491-.697.364-.465.547-1.144.547-2.037 0-.697-.185-1.256-.554-1.675-.365-.424-.864-.636-1.497-.636zm9.303 5.934c-.072-.146-.132-.406-.177-.779-.588.61-1.29.916-2.106.916-.729 0-1.328-.205-1.798-.616a2.016 2.016 0 01-.697-1.572c0-.77.292-1.367.875-1.791.588-.428 1.413-.642 2.475-.642h1.23v-.581c0-.442-.132-.793-.396-1.053-.265-.264-.654-.397-1.169-.397-.451 0-.83.114-1.135.342-.305.228-.458.504-.458.827h-1.271c0-.369.129-.724.389-1.066.264-.346.62-.62 1.067-.82a3.6 3.6 0 011.483-.301c.852 0 1.52.214 2.003.642.483.424.734 1.01.752 1.757v3.405c0 .679.086 1.219.26 1.62V169h-1.327zm-2.098-.964c.396 0 .772-.102 1.128-.307.355-.206.613-.472.772-.8v-1.518h-.991c-1.549 0-2.324.454-2.324 1.36 0 .397.132.707.396.93.265.223.604.335 1.019.335zm5.263.964v-7.396h2.885c.985 0 1.739.173 2.263.519.529.342.793.845.793 1.511 0 .342-.103.651-.308.929-.205.274-.508.484-.909.629.447.105.804.31 1.073.616.274.305.411.67.411 1.093 0 .679-.251 1.199-.752 1.559-.497.36-1.201.54-2.113.54h-3.343zm1.265-3.247v2.228h2.092c.529 0 .923-.098 1.183-.293.264-.196.396-.472.396-.828 0-.738-.542-1.107-1.627-1.107h-2.044zm0-1.012h1.634c1.185 0 1.777-.346 1.777-1.039s-.56-1.05-1.681-1.073h-1.73v2.112zm11.402-3.137h1.265V169h-1.265v-5.394L504.194 169h-1.264v-7.396h1.264v5.4l3.411-5.4zm8.791 1.025h-2.481V169h-1.265v-6.371h-2.433v-1.025h6.179v1.025zm2.612 1.524h1.921c.838.009 1.501.228 1.989.657.488.428.731 1.009.731 1.743 0 .738-.25 1.33-.752 1.777-.501.447-1.175.67-2.023.67h-3.131v-7.396h1.265v2.549zm0 1.033v2.782h1.88c.474 0 .841-.121 1.1-.363.26-.246.39-.581.39-1.004 0-.411-.128-.746-.383-1.005-.251-.265-.604-.401-1.059-.41h-1.928zm12.113 1.961l1.723-5.543h1.353l-2.973 8.538c-.461 1.23-1.192 1.845-2.195 1.845l-.239-.02-.472-.089v-1.025l.342.027c.429 0 .761-.087.998-.26.242-.173.44-.49.595-.95l.28-.752-2.638-7.314h1.38l1.846 5.543zm7.082.957a1.82 1.82 0 001.183-.41 1.44 1.44 0 00.56-1.025h1.197a2.295 2.295 0 01-.438 1.21 2.876 2.876 0 01-1.08.916 3.087 3.087 0 01-1.422.342c-1.007 0-1.809-.335-2.406-1.005-.593-.675-.889-1.595-.889-2.762v-.212c0-.72.132-1.36.397-1.921.264-.56.642-.995 1.134-1.305.497-.31 1.083-.465 1.757-.465.83 0 1.518.248 2.065.745.551.497.845 1.142.882 1.934h-1.197c-.036-.478-.218-.87-.547-1.175-.323-.31-.724-.465-1.203-.465-.642 0-1.141.232-1.497.697-.351.46-.526 1.128-.526 2.003v.239c0 .853.175 1.509.526 1.969.351.46.852.69 1.504.69zm10.425-6.5V169h-1.272v-6.351h-2.515l-.151 2.769c-.082 1.271-.296 2.181-.642 2.728-.342.546-.887.831-1.634.854h-.506v-1.114l.363-.028c.41-.045.704-.282.881-.711.178-.428.292-1.221.342-2.378l.137-3.165h4.997zm4.45 5.543l1.723-5.543h1.353l-2.973 8.538c-.461 1.23-1.192 1.845-2.195 1.845l-.239-.02-.472-.089v-1.025l.342.027c.429 0 .761-.087.998-.26.242-.173.44-.49.595-.95l.28-.752-2.638-7.314h1.38l1.846 5.543zm8.989-4.498h-3.411V169h-1.271v-7.396h4.682v1.045zm5.886-1.045h1.265V169h-1.265v-5.394L564.542 169h-1.265v-7.396h1.265v5.4l3.411-5.4zM468.757 326h-1.319v-8.873h-4.909V326h-1.312v-9.953h7.54V326zm1.859-3.767c0-.724.141-1.376.424-1.955a3.23 3.23 0 011.189-1.34c.511-.314 1.092-.471 1.744-.471 1.007 0 1.82.348 2.44 1.046.624.697.937 1.624.937 2.782v.089c0 .72-.139 1.367-.417 1.941a3.117 3.117 0 01-1.183 1.333c-.51.319-1.098.479-1.764.479-1.002 0-1.816-.349-2.44-1.046-.62-.697-.93-1.62-.93-2.769v-.089zm1.272.151c0 .82.189 1.479.567 1.975.383.497.893.745 1.531.745.643 0 1.153-.25 1.532-.751.378-.506.567-1.213.567-2.12 0-.811-.194-1.467-.581-1.968-.383-.506-.893-.759-1.531-.759-.625 0-1.128.248-1.511.745s-.574 1.208-.574 2.133zm6.494 2.584l.437-.54c.493-.638.773-1.595.841-2.871l.116-2.953h4.765v6.364h.95v3.206h-1.264V326h-5.162v2.174h-1.264l.007-3.206h.574zm1.497 0h3.397v-5.196H481l-.075 1.764c-.078 1.472-.426 2.616-1.046 3.432zM492.942 326h-1.264v-6.351h-3.405V326h-1.271v-7.396h5.94V326zm6.816-7.396h1.264V326h-1.264v-5.394L496.347 326h-1.265v-7.396h1.265v5.4l3.411-5.4zm6.262 6.5c.451 0 .845-.136 1.182-.41.337-.273.524-.615.561-1.025h1.196a2.295 2.295 0 01-.438 1.21 2.861 2.861 0 01-1.08.916 3.08 3.08 0 01-1.421.342c-1.008 0-1.81-.335-2.407-1.005-.592-.675-.888-1.595-.888-2.762v-.212c0-.72.132-1.36.396-1.921.264-.56.643-.995 1.135-1.305.497-.31 1.082-.465 1.757-.465.829 0 1.517.248 2.064.745.552.497.846 1.142.882 1.934h-1.196c-.037-.478-.219-.87-.547-1.175-.324-.31-.725-.465-1.203-.465-.643 0-1.142.232-1.497.697-.351.46-.527 1.128-.527 2.003v.239c0 .853.176 1.509.527 1.969.351.46.852.69 1.504.69zm6.665-2.255h-.923V326h-1.272v-7.396h1.272v3.13h.827l2.488-3.13h1.531l-2.925 3.554 3.171 3.842h-1.606l-2.563-3.151zm9.823 3.151c-.073-.146-.132-.406-.178-.779-.588.61-1.29.916-2.105.916-.73 0-1.329-.205-1.798-.616a2.014 2.014 0 01-.698-1.572c0-.77.292-1.367.875-1.791.588-.428 1.413-.642 2.475-.642h1.231v-.581c0-.442-.133-.793-.397-1.053-.264-.264-.654-.397-1.169-.397-.451 0-.829.114-1.135.342-.305.228-.458.504-.458.827h-1.271c0-.369.13-.724.39-1.066.264-.346.619-.62 1.066-.82a3.604 3.604 0 011.483-.301c.853 0 1.52.214 2.003.642.483.424.734 1.01.752 1.757v3.405c0 .679.087 1.219.26 1.62V326h-1.326zm-2.099-.964a2.22 2.22 0 001.128-.307c.356-.206.613-.472.773-.8v-1.518h-.992c-1.549 0-2.324.454-2.324 1.36 0 .397.132.707.397.93.264.223.603.335 1.018.335zm14.663.964h-1.264v-3.158h-3.398V326h-1.271v-7.396h1.271v3.206h3.398v-3.206h1.264V326zm6.604 0c-.073-.146-.132-.406-.178-.779-.588.61-1.29.916-2.105.916-.73 0-1.329-.205-1.798-.616a2.014 2.014 0 01-.698-1.572c0-.77.292-1.367.875-1.791.588-.428 1.413-.642 2.475-.642h1.231v-.581c0-.442-.133-.793-.397-1.053-.264-.264-.654-.397-1.169-.397-.451 0-.829.114-1.135.342-.305.228-.458.504-.458.827h-1.271c0-.369.13-.724.39-1.066.264-.346.619-.62 1.066-.82a3.604 3.604 0 011.483-.301c.853 0 1.52.214 2.003.642.483.424.734 1.01.752 1.757v3.405c0 .679.087 1.219.26 1.62V326h-1.326zm-2.099-.964a2.22 2.22 0 001.128-.307c.356-.206.613-.472.773-.8v-1.518h-.992c-1.549 0-2.324.454-2.324 1.36 0 .397.132.707.397.93.264.223.603.335 1.018.335zm14.67.964h-1.265v-6.351h-3.404V326h-1.271v-7.396h5.94V326zm8.278-3.616c0 1.125-.257 2.032-.772 2.72-.515.689-1.212 1.033-2.092 1.033-.898 0-1.604-.285-2.119-.855v3.562h-1.265v-10.24h1.156l.061.82c.515-.638 1.231-.957 2.147-.957.888 0 1.59.335 2.105 1.005.52.67.779 1.602.779 2.796v.116zm-1.264-.144c0-.834-.178-1.492-.533-1.975-.356-.483-.844-.725-1.463-.725-.766 0-1.34.34-1.723 1.019v3.534c.378.674.957 1.011 1.736 1.011.606 0 1.087-.239 1.443-.717.36-.483.54-1.199.54-2.147zm5.947 3.897c-1.003 0-1.818-.328-2.447-.985-.629-.66-.944-1.542-.944-2.645v-.233c0-.733.139-1.387.417-1.962a3.295 3.295 0 011.176-1.353 2.96 2.96 0 011.641-.492c.961 0 1.709.317 2.242.95.533.633.8 1.54.8 2.721v.526h-5.011c.018.729.23 1.319.636 1.771.41.446.929.669 1.558.669.447 0 .825-.091 1.135-.273.31-.182.581-.424.814-.725l.772.602c-.62.952-1.549 1.429-2.789 1.429zm-.157-6.631c-.511 0-.939.187-1.285.56-.347.37-.561.889-.643 1.559h3.705v-.096c-.036-.642-.21-1.139-.519-1.49-.31-.355-.73-.533-1.258-.533zm7.478 5.598a1.82 1.82 0 001.183-.41 1.44 1.44 0 00.56-1.025h1.197a2.295 2.295 0 01-.438 1.21 2.876 2.876 0 01-1.08.916c-.446.228-.92.342-1.422.342-1.007 0-1.809-.335-2.406-1.005-.592-.675-.889-1.595-.889-2.762v-.212c0-.72.133-1.36.397-1.921.264-.56.642-.995 1.135-1.305.496-.31 1.082-.465 1.756-.465.83 0 1.518.248 2.065.745.551.497.845 1.142.882 1.934h-1.197c-.036-.478-.218-.87-.546-1.175-.324-.31-.725-.465-1.204-.465-.642 0-1.141.232-1.497.697-.351.46-.526 1.128-.526 2.003v.239c0 .853.175 1.509.526 1.969.351.46.853.69 1.504.69zm7.328 0c.452 0 .846-.136 1.183-.41.337-.273.524-.615.561-1.025h1.196a2.295 2.295 0 01-.438 1.21 2.876 2.876 0 01-1.08.916c-.446.228-.92.342-1.422.342-1.007 0-1.809-.335-2.406-1.005-.592-.675-.889-1.595-.889-2.762v-.212c0-.72.133-1.36.397-1.921.264-.56.643-.995 1.135-1.305.496-.31 1.082-.465 1.757-.465.829 0 1.517.248 2.064.745.551.497.845 1.142.882 1.934h-1.196c-.037-.478-.219-.87-.547-1.175-.324-.31-.725-.465-1.203-.465-.643 0-1.142.232-1.497.697-.351.46-.527 1.128-.527 2.003v.239c0 .853.176 1.509.527 1.969.35.46.852.69 1.503.69zm6.994-2.816h-3.336v-1.032h3.336v1.032zm7.485.096c0 1.125-.258 2.032-.773 2.72-.514.689-1.212 1.033-2.091 1.033-.898 0-1.604-.285-2.119-.855v3.562h-1.265v-10.24h1.155l.062.82c.515-.638 1.23-.957 2.146-.957.889 0 1.591.335 2.106 1.005.519.67.779 1.602.779 2.796v.116zm-1.265-.144c0-.834-.177-1.492-.533-1.975-.355-.483-.843-.725-1.463-.725-.765 0-1.34.34-1.722 1.019v3.534c.378.674.957 1.011 1.736 1.011.606 0 1.087-.239 1.442-.717.36-.483.54-1.199.54-2.147zm5.948 3.897c-1.003 0-1.819-.328-2.448-.985-.629-.66-.943-1.542-.943-2.645v-.233c0-.733.139-1.387.417-1.962a3.281 3.281 0 011.176-1.353 2.957 2.957 0 011.64-.492c.962 0 1.709.317 2.243.95.533.633.799 1.54.799 2.721v.526h-5.01c.018.729.23 1.319.635 1.771.41.446.93.669 1.559.669.447 0 .825-.091 1.135-.273.31-.182.581-.424.813-.725l.773.602c-.62.952-1.55 1.429-2.789 1.429zm-.158-6.631c-.51 0-.938.187-1.285.56-.346.37-.56.889-.642 1.559h3.705v-.096c-.037-.642-.21-1.139-.52-1.49-.31-.355-.729-.533-1.258-.533zm10.576-.902V326h-1.272v-6.351h-2.516l-.15 2.769c-.082 1.271-.296 2.181-.643 2.728-.341.546-.886.831-1.633.854h-.506v-1.114l.362-.028c.41-.045.704-.282.882-.711.178-.428.292-1.221.342-2.378l.136-3.165h4.998zm6.815 0h1.265V326h-1.265v-5.394L614.841 326h-1.265v-7.396h1.265v5.4l3.411-5.4zm7.362 2.023a.974.974 0 00-.396-.82c-.265-.205-.627-.308-1.087-.308-.447 0-.82.116-1.121.349-.296.232-.445.506-.445.82h-1.257c0-.643.268-1.169.806-1.579.538-.41 1.21-.615 2.017-.615.866 0 1.54.186 2.023.56.483.369.725.898.725 1.586 0 .333-.1.638-.301.916-.2.278-.485.499-.854.663.861.292 1.292.866 1.292 1.723 0 .679-.262 1.217-.787 1.613-.524.397-1.223.595-2.098.595-.852 0-1.556-.207-2.112-.622-.552-.419-.828-.985-.828-1.696h1.258c0 .361.16.67.479.93.323.255.724.383 1.203.383.483 0 .873-.112 1.169-.335a1.04 1.04 0 00.444-.868c0-.415-.125-.711-.376-.889-.246-.182-.631-.273-1.155-.273h-1.265v-1.067h1.374c.862-.022 1.292-.378 1.292-1.066zm4.423.526h1.921c.839.009 1.502.228 1.989.657.488.428.732 1.009.732 1.743 0 .738-.251 1.33-.752 1.777-.502.447-1.176.67-2.024.67h-3.131v-7.396h1.265v2.549zm7.28 4.847h-1.271v-7.396h1.271V326zm-7.28-3.814v2.782h1.88c.474 0 .841-.121 1.101-.363.259-.246.389-.581.389-1.004 0-.411-.127-.746-.383-1.005-.25-.265-.603-.401-1.059-.41h-1.928zM83.74 196.529h-1.21V201h-1.313v-9.953h1.312v4.389h1.026l3.48-4.389h1.633l-3.8 4.826 4.08 5.127h-1.606l-3.603-4.471zm5.687.704c0-.724.141-1.376.424-1.955.287-.578.683-1.025 1.189-1.34.51-.314 1.091-.471 1.743-.471 1.007 0 1.82.348 2.44 1.046.625.697.937 1.624.937 2.782v.089c0 .72-.139 1.367-.417 1.941a3.113 3.113 0 01-1.182 1.333c-.51.319-1.099.479-1.764.479-1.003 0-1.816-.349-2.44-1.046-.62-.697-.93-1.62-.93-2.769v-.089zm1.271.151c0 .82.19 1.479.568 1.975.382.497.893.745 1.53.745.643 0 1.154-.25 1.532-.751.378-.506.567-1.213.567-2.12 0-.811-.193-1.467-.58-1.968-.383-.506-.894-.759-1.532-.759-.624 0-1.128.248-1.51.745-.383.497-.575 1.208-.575 2.133zm11.307 1.941l2.516-5.721h1.579V201h-1.265v-5.38l-2.393 5.38h-.875l-2.44-5.496V201h-1.265v-7.396h1.64l2.503 5.721zM112.703 201c-.073-.146-.132-.406-.178-.779-.587.61-1.289.916-2.105.916-.729 0-1.329-.205-1.798-.616-.465-.414-.697-.938-.697-1.572 0-.77.291-1.367.875-1.791.588-.428 1.413-.642 2.474-.642h1.231v-.581c0-.442-.132-.793-.397-1.053-.264-.264-.654-.397-1.169-.397-.451 0-.829.114-1.134.342-.306.228-.458.504-.458.827h-1.272c0-.369.13-.724.39-1.066a2.7 2.7 0 011.066-.82 3.605 3.605 0 011.484-.301c.852 0 1.52.214 2.003.642.483.424.733 1.01.752 1.757v3.405c0 .679.086 1.219.259 1.62V201h-1.326zm-2.099-.964a2.22 2.22 0 001.128-.307c.356-.206.613-.472.773-.8v-1.518h-.991c-1.55 0-2.325.454-2.325 1.36 0 .397.133.707.397.93.264.223.604.335 1.018.335zm11.191.964h-1.265v-3.158h-3.397V201h-1.272v-7.396h1.272v3.206h3.397v-3.206h1.265V201zm1.976-1.032l.437-.54c.492-.638.772-1.595.841-2.871l.116-2.953h4.765v6.364h.95v3.206h-1.265V201h-5.161v2.174h-1.265l.007-3.206h.575zm1.497 0h3.397v-5.196h-2.276l-.076 1.764c-.077 1.472-.426 2.616-1.045 3.432zm11.58 1.032c-.073-.146-.133-.406-.178-.779-.588.61-1.29.916-2.106.916-.729 0-1.328-.205-1.797-.616a2.014 2.014 0 01-.698-1.572c0-.77.292-1.367.875-1.791.588-.428 1.413-.642 2.475-.642h1.23v-.581c0-.442-.132-.793-.396-1.053-.264-.264-.654-.397-1.169-.397-.451 0-.829.114-1.135.342-.305.228-.458.504-.458.827h-1.271c0-.369.13-.724.389-1.066.265-.346.62-.62 1.067-.82a3.6 3.6 0 011.483-.301c.852 0 1.52.214 2.003.642.483.424.734 1.01.752 1.757v3.405c0 .679.087 1.219.26 1.62V201h-1.326zm-2.099-.964c.397 0 .772-.102 1.128-.307.355-.206.613-.472.772-.8v-1.518h-.991c-1.549 0-2.324.454-2.324 1.36 0 .397.132.707.396.93.265.223.604.335 1.019.335zM88.757 326h-1.32v-8.873H82.53V326h-1.312v-9.953h7.54V326zm8.442-3.616c0 1.125-.257 2.032-.772 2.72-.515.689-1.213 1.033-2.092 1.033-.898 0-1.604-.285-2.12-.855v3.562h-1.264v-10.24h1.155l.062.82c.515-.638 1.23-.957 2.146-.957.89 0 1.59.335 2.106 1.005.52.67.78 1.602.78 2.796v.116zm-1.264-.144c0-.834-.178-1.492-.534-1.975-.355-.483-.843-.725-1.462-.725-.766 0-1.34.34-1.723 1.019v3.534c.378.674.957 1.011 1.736 1.011.606 0 1.087-.239 1.442-.717.36-.483.54-1.199.54-2.147zm7.663-3.636h1.264V326h-1.264v-5.394L100.187 326h-1.265v-7.396h1.265v5.4l3.411-5.4zm6.261 6.5c.452 0 .846-.136 1.183-.41.337-.273.524-.615.561-1.025h1.196a2.295 2.295 0 01-.438 1.21 2.876 2.876 0 01-1.08.916c-.446.228-.92.342-1.422.342-1.007 0-1.809-.335-2.406-1.005-.592-.675-.889-1.595-.889-2.762v-.212c0-.72.133-1.36.397-1.921.264-.56.643-.995 1.135-1.305.496-.31 1.082-.465 1.757-.465.829 0 1.517.248 2.064.745.551.497.845 1.142.882 1.934h-1.196c-.037-.478-.219-.87-.547-1.175-.324-.31-.725-.465-1.203-.465-.643 0-1.142.232-1.498.697-.35.46-.526 1.128-.526 2.003v.239c0 .853.176 1.509.526 1.969.351.46.853.69 1.504.69zm4.027-2.871c0-.724.141-1.376.424-1.955.287-.578.683-1.025 1.189-1.34.51-.314 1.091-.471 1.743-.471 1.007 0 1.821.348 2.441 1.046.624.697.936 1.624.936 2.782v.089c0 .72-.139 1.367-.417 1.941a3.109 3.109 0 01-1.182 1.333c-.511.319-1.099.479-1.764.479-1.003 0-1.816-.349-2.441-1.046-.619-.697-.929-1.62-.929-2.769v-.089zm1.271.151c0 .82.189 1.479.568 1.975.382.497.893.745 1.531.745.642 0 1.153-.25 1.531-.751.378-.506.567-1.213.567-2.12 0-.811-.193-1.467-.581-1.968-.382-.506-.893-.759-1.531-.759-.624 0-1.128.248-1.511.745-.382.497-.574 1.208-.574 2.133zm10.117 3.753c-1.002 0-1.818-.328-2.447-.985-.629-.66-.943-1.542-.943-2.645v-.233c0-.733.139-1.387.417-1.962a3.281 3.281 0 011.176-1.353 2.954 2.954 0 011.64-.492c.962 0 1.709.317 2.242.95.534.633.8 1.54.8 2.721v.526h-5.011c.019.729.231 1.319.636 1.771.41.446.93.669 1.559.669.446 0 .825-.091 1.135-.273a2.85 2.85 0 00.813-.725l.772.602c-.619.952-1.549 1.429-2.789 1.429zm-.157-6.631c-.51 0-.939.187-1.285.56-.346.37-.561.889-.643 1.559h3.706v-.096c-.037-.642-.21-1.139-.52-1.49-.31-.355-.729-.533-1.258-.533zm4.45 5.462l.438-.54c.492-.638.772-1.595.841-2.871l.116-2.953h4.765v6.364h.95v3.206h-1.265V326h-5.161v2.174h-1.265l.007-3.206h.574zm1.497 0h3.398v-5.196h-2.276l-.076 1.764c-.077 1.472-.426 2.616-1.046 3.432zm11.799-6.364h1.265V326h-1.265v-5.394L139.452 326h-1.264v-7.396h1.264v5.4l3.411-5.4zm9.338 7.396h-1.264v-3.158h-3.398V326h-1.271v-7.396h1.271v3.206h3.398v-3.206h1.264V326zm6.822-7.396h1.265V326h-1.265v-5.394L155.612 326h-1.264v-7.396h1.264v5.4l3.411-5.4zm8.791 1.025h-2.481V326h-1.265v-6.371h-2.433v-1.025h6.179v1.025zm2.612 1.524h1.921c.838.009 1.501.228 1.989.657.488.428.731 1.009.731 1.743 0 .738-.25 1.33-.752 1.777-.501.447-1.175.67-2.023.67h-3.131v-7.396h1.265v2.549zm0 1.033v2.782h1.88c.474 0 .84-.121 1.1-.363.26-.246.39-.581.39-1.004 0-.411-.128-.746-.383-1.005-.251-.265-.604-.401-1.059-.41h-1.928zm9.187 2.918a1.82 1.82 0 001.183-.41 1.44 1.44 0 00.56-1.025h1.197a2.295 2.295 0 01-.438 1.21 2.876 2.876 0 01-1.08.916c-.446.228-.92.342-1.422.342-1.007 0-1.809-.335-2.406-1.005-.592-.675-.889-1.595-.889-2.762v-.212c0-.72.133-1.36.397-1.921.264-.56.642-.995 1.135-1.305.496-.31 1.082-.465 1.756-.465.83 0 1.518.248 2.065.745.551.497.845 1.142.882 1.934h-1.197c-.036-.478-.218-.87-.546-1.175-.324-.31-.725-.465-1.204-.465-.642 0-1.141.232-1.497.697-.351.46-.526 1.128-.526 2.003v.239c0 .853.175 1.509.526 1.969.351.46.853.69 1.504.69zm10.015-6.5V326h-1.272v-2.878h-1.907L184.706 326h-1.367l1.859-3.069c-.474-.174-.838-.44-1.094-.8a2.196 2.196 0 01-.375-1.272c0-.674.252-1.216.758-1.627.506-.414 1.183-.624 2.031-.628h3.11zM185 320.873c0 .36.123.652.369.875.246.219.572.33.978.335h2.009v-2.454h-1.818c-.469 0-.843.116-1.121.349a1.1 1.1 0 00-.417.895zm12.435 1.976h-.923V326h-1.272v-7.396h1.272v3.13h.827l2.488-3.13h1.531l-2.925 3.554 3.171 3.842h-1.606l-2.563-3.151zm11.033 0h-.923V326h-1.272v-7.396h1.272v3.13h.827l2.488-3.13h1.532l-2.926 3.554 3.172 3.842h-1.607l-2.563-3.151zm4.771-.616c0-.724.142-1.376.424-1.955a3.226 3.226 0 011.19-1.34c.51-.314 1.091-.471 1.743-.471 1.007 0 1.82.348 2.44 1.046.624.697.937 1.624.937 2.782v.089c0 .72-.139 1.367-.417 1.941a3.117 3.117 0 01-1.183 1.333c-.51.319-1.098.479-1.764.479-1.002 0-1.816-.349-2.44-1.046-.62-.697-.93-1.62-.93-2.769v-.089zm1.272.151c0 .82.189 1.479.567 1.975.383.497.893.745 1.531.745.643 0 1.153-.25 1.532-.751.378-.506.567-1.213.567-2.12 0-.811-.194-1.467-.581-1.968-.383-.506-.893-.759-1.531-.759-.625 0-1.128.248-1.511.745s-.574 1.208-.574 2.133zm11.306 1.941l2.516-5.721h1.579V326h-1.265v-5.38l-2.392 5.38h-.875l-2.441-5.496V326h-1.264v-7.396h1.64l2.502 5.721zM236.516 326c-.073-.146-.133-.406-.178-.779-.588.61-1.29.916-2.106.916-.729 0-1.328-.205-1.797-.616a2.014 2.014 0 01-.698-1.572c0-.77.292-1.367.875-1.791.588-.428 1.413-.642 2.475-.642h1.23v-.581c0-.442-.132-.793-.396-1.053-.264-.264-.654-.397-1.169-.397-.451 0-.829.114-1.135.342-.305.228-.458.504-.458.827h-1.271c0-.369.13-.724.389-1.066.265-.346.62-.62 1.067-.82a3.6 3.6 0 011.483-.301c.852 0 1.52.214 2.003.642.483.424.734 1.01.752 1.757v3.405c0 .679.087 1.219.26 1.62V326h-1.326zm-2.099-.964c.396 0 .772-.102 1.128-.307.355-.206.613-.472.772-.8v-1.518h-.991c-1.549 0-2.324.454-2.324 1.36 0 .397.132.707.396.93.265.223.604.335 1.019.335zm11.19.964h-1.264v-3.158h-3.398V326h-1.271v-7.396h1.271v3.206h3.398v-3.206h1.264V326zm1.976-1.032l.438-.54c.492-.638.772-1.595.84-2.871l.117-2.953h4.764v6.364h.95v3.206h-1.264V326h-5.161v2.174h-1.265l.007-3.206h.574zm1.497 0h3.398v-5.196h-2.277l-.075 1.764c-.077 1.472-.426 2.616-1.046 3.432zm10.083 1.169c-1.003 0-1.818-.328-2.447-.985-.629-.66-.944-1.542-.944-2.645v-.233c0-.733.139-1.387.417-1.962a3.295 3.295 0 011.176-1.353 2.96 2.96 0 011.641-.492c.961 0 1.709.317 2.242.95.533.633.8 1.54.8 2.721v.526h-5.011c.018.729.23 1.319.636 1.771.41.446.93.669 1.558.669.447 0 .825-.091 1.135-.273.31-.182.581-.424.814-.725l.772.602c-.62.952-1.549 1.429-2.789 1.429zm-.157-6.631c-.511 0-.939.187-1.285.56-.347.37-.561.889-.643 1.559h3.705v-.096c-.036-.642-.209-1.139-.519-1.49-.31-.355-.729-.533-1.258-.533zM88.477 354.842c-.124 1.053-.513 1.866-1.17 2.44-.651.57-1.52.855-2.604.855-1.176 0-2.119-.422-2.83-1.265-.706-.843-1.06-1.971-1.06-3.384v-.957c0-.925.165-1.738.493-2.44.332-.702.802-1.24 1.408-1.613.606-.379 1.308-.568 2.105-.568 1.058 0 1.905.296 2.543.889.638.588 1.01 1.403 1.115 2.447h-1.32c-.114-.793-.362-1.367-.745-1.723-.378-.355-.91-.533-1.593-.533-.838 0-1.497.31-1.975.93-.474.62-.711 1.502-.711 2.645v.964c0 1.08.225 1.939.677 2.577.45.638 1.082.957 1.893.957.73 0 1.288-.164 1.675-.492.392-.332.652-.909.78-1.729h1.319zM96.126 358h-1.265v-6.351h-3.404V358h-1.271v-7.396h5.94V358zm6.815-7.396h1.265V358h-1.265v-5.394L99.531 358h-1.265v-7.396h1.264v5.4l3.411-5.4zm6.262 6.5a1.82 1.82 0 001.183-.41 1.44 1.44 0 00.56-1.025h1.197a2.295 2.295 0 01-.438 1.21 2.876 2.876 0 01-1.08.916 3.087 3.087 0 01-1.422.342c-1.007 0-1.809-.335-2.406-1.005-.593-.675-.889-1.595-.889-2.762v-.212c0-.72.132-1.36.397-1.921.264-.56.642-.995 1.134-1.305.497-.31 1.083-.465 1.757-.465.83 0 1.518.248 2.065.745.551.497.845 1.142.882 1.934h-1.197c-.036-.478-.218-.87-.547-1.175-.323-.31-.724-.465-1.203-.465-.642 0-1.141.232-1.497.697-.351.46-.526 1.128-.526 2.003v.239c0 .853.175 1.509.526 1.969.351.46.852.69 1.504.69zm4.026-2.871c0-.724.142-1.376.424-1.955a3.226 3.226 0 011.19-1.34c.51-.314 1.091-.471 1.743-.471 1.007 0 1.821.348 2.44 1.046.625.697.937 1.624.937 2.782v.089c0 .72-.139 1.367-.417 1.941a3.117 3.117 0 01-1.183 1.333c-.51.319-1.098.479-1.763.479-1.003 0-1.816-.349-2.441-1.046-.62-.697-.93-1.62-.93-2.769v-.089zm1.272.151c0 .82.189 1.479.567 1.975.383.497.894.745 1.532.745.642 0 1.153-.25 1.531-.751.378-.506.567-1.213.567-2.12 0-.811-.193-1.467-.581-1.968-.383-.506-.893-.759-1.531-.759-.624 0-1.128.248-1.511.745s-.574 1.208-.574 2.133zm9.352.465h-.923V358h-1.272v-7.396h1.272v3.13h.827l2.488-3.13h1.531l-2.925 3.554 3.171 3.842h-1.606l-2.563-3.151zm8.845 3.151v-7.396h2.885c.984 0 1.739.173 2.263.519.528.342.793.845.793 1.511 0 .342-.103.651-.308.929-.205.274-.508.484-.909.629.446.105.804.31 1.073.616.274.305.41.67.41 1.093 0 .679-.25 1.199-.752 1.559-.496.36-1.201.54-2.112.54h-3.343zm1.265-3.247v2.228h2.092c.528 0 .923-.098 1.182-.293.265-.196.397-.472.397-.828 0-.738-.543-1.107-1.627-1.107h-2.044zm0-1.012h1.634c1.185 0 1.777-.346 1.777-1.039s-.561-1.05-1.682-1.073h-1.729v2.112zM145.146 358c-.072-.146-.132-.406-.177-.779-.588.61-1.29.916-2.106.916-.729 0-1.328-.205-1.798-.616a2.016 2.016 0 01-.697-1.572c0-.77.292-1.367.875-1.791.588-.428 1.413-.642 2.475-.642h1.23v-.581c0-.442-.132-.793-.396-1.053-.265-.264-.654-.397-1.169-.397-.451 0-.83.114-1.135.342-.305.228-.458.504-.458.827h-1.271c0-.369.129-.724.389-1.066.265-.346.62-.62 1.067-.82a3.6 3.6 0 011.483-.301c.852 0 1.52.214 2.003.642.483.424.734 1.01.752 1.757v3.405c0 .679.086 1.219.26 1.62V358h-1.327zm-2.098-.964c.396 0 .772-.102 1.128-.307.355-.206.613-.472.772-.8v-1.518h-.991c-1.549 0-2.324.454-2.324 1.36 0 .397.132.707.396.93.265.223.604.335 1.019.335zm7.451-2.187h-.923V358h-1.271v-7.396h1.271v3.13h.827l2.489-3.13h1.531l-2.926 3.554 3.172 3.842h-1.607l-2.563-3.151zm9.823 3.151c-.073-.146-.132-.406-.177-.779-.588.61-1.29.916-2.106.916-.729 0-1.328-.205-1.798-.616-.465-.414-.697-.938-.697-1.572 0-.77.292-1.367.875-1.791.588-.428 1.413-.642 2.475-.642h1.23v-.581c0-.442-.132-.793-.396-1.053-.265-.264-.654-.397-1.169-.397-.452 0-.83.114-1.135.342-.306.228-.458.504-.458.827h-1.272c0-.369.13-.724.39-1.066a2.7 2.7 0 011.066-.82 3.608 3.608 0 011.484-.301c.852 0 1.52.214 2.003.642.483.424.733 1.01.752 1.757v3.405c0 .679.086 1.219.259 1.62V358h-1.326zm-2.098-.964c.396 0 .772-.102 1.128-.307.355-.206.613-.472.772-.8v-1.518h-.991c-1.55 0-2.324.454-2.324 1.36 0 .397.132.707.396.93.264.223.604.335 1.019.335zm11.19.964h-1.265v-3.158h-3.397V358h-1.272v-7.396h1.272v3.206h3.397v-3.206h1.265V358zm5.004-.896c.451 0 .845-.136 1.183-.41a1.44 1.44 0 00.56-1.025h1.196a2.285 2.285 0 01-.437 1.21 2.876 2.876 0 01-1.08.916 3.087 3.087 0 01-1.422.342c-1.007 0-1.809-.335-2.406-1.005-.593-.675-.889-1.595-.889-2.762v-.212c0-.72.132-1.36.397-1.921.264-.56.642-.995 1.134-1.305.497-.31 1.083-.465 1.757-.465.83 0 1.518.248 2.065.745.551.497.845 1.142.881 1.934h-1.196c-.036-.478-.219-.87-.547-1.175-.323-.31-.724-.465-1.203-.465-.642 0-1.141.232-1.497.697-.351.46-.526 1.128-.526 2.003v.239c0 .853.175 1.509.526 1.969.351.46.852.69 1.504.69zm9.146-6.5h1.265V358h-1.265v-5.394L180.153 358h-1.264v-7.396h1.264v5.4l3.411-5.4zm8.081 0h1.264V358h-1.264v-5.394L188.233 358h-1.264v-7.396h1.264v5.4l3.412-5.4zm.341-2.694c0 .552-.189.996-.567 1.333-.374.333-.866.499-1.477.499-.61 0-1.105-.168-1.483-.506-.378-.337-.567-.779-.567-1.326h1.032c0 .319.086.57.26.752.173.178.426.267.758.267.319 0 .568-.089.746-.267.182-.178.273-.428.273-.752h1.025zM88.44 87.2c-1.427 0-2.713-.307-3.86-.92a6.981 6.981 0 01-2.7-2.58c-.653-1.107-.98-2.34-.98-3.7 0-1.36.327-2.587.98-3.68a6.795 6.795 0 012.7-2.58c1.147-.627 2.433-.94 3.86-.94s2.713.313 3.86.94A6.838 6.838 0 0195 76.3c.653 1.093.98 2.327.98 3.7 0 1.373-.327 2.607-.98 3.7a6.981 6.981 0 01-2.7 2.58c-1.147.613-2.433.92-3.86.92zm0-2.28c.933 0 1.773-.207 2.52-.62a4.648 4.648 0 001.76-1.76c.427-.76.64-1.607.64-2.54s-.213-1.773-.64-2.52a4.469 4.469 0 00-1.76-1.76c-.747-.427-1.587-.64-2.52-.64s-1.773.213-2.52.64c-.747.413-1.333 1-1.76 1.76-.427.747-.64 1.587-.64 2.52s.213 1.78.64 2.54a4.648 4.648 0 001.76 1.76c.747.413 1.587.62 2.52.62zm20.102-2.2h-1.94V87h-2.5V76.32h2.5v4.32h2l3.16-4.32h2.68l-3.88 5.14 4.14 5.54h-2.94l-3.22-4.28zm12.332 4.42c-1.08 0-2.054-.233-2.92-.7a5.191 5.191 0 01-2.04-1.94c-.48-.84-.72-1.787-.72-2.84s.24-1.993.72-2.82a5.191 5.191 0 012.04-1.94c.866-.467 1.84-.7 2.92-.7 1.093 0 2.073.233 2.94.7a5.06 5.06 0 012.02 1.94c.493.827.74 1.767.74 2.82s-.247 2-.74 2.84a5.06 5.06 0 01-2.02 1.94c-.867.467-1.847.7-2.94.7zm0-2.14c.92 0 1.68-.307 2.28-.92.6-.613.9-1.42.9-2.42s-.3-1.807-.9-2.42c-.6-.613-1.36-.92-2.28-.92-.92 0-1.68.307-2.28.92-.587.613-.88 1.42-.88 2.42s.293 1.807.88 2.42c.6.613 1.36.92 2.28.92zm18.669 2v-7.08l-3.6 5.96h-1.08l-3.54-5.98V87h-2.28V76.32h2.62l3.8 6.68 3.98-6.68h2.34l.02 10.68h-2.26zm15.854-10.68V87h-2.48v-8.56h-5.26V87h-2.5V76.32h10.24zm7.353-.12c1.573 0 2.773.38 3.6 1.14.84.747 1.26 1.88 1.26 3.4V87h-2.36v-1.3c-.307.467-.747.827-1.32 1.08-.56.24-1.24.36-2.04.36s-1.5-.133-2.1-.4c-.6-.28-1.067-.66-1.4-1.14a2.985 2.985 0 01-.48-1.66c0-.96.353-1.727 1.06-2.3.72-.587 1.847-.88 3.38-.88h2.76v-.16c0-.747-.227-1.32-.68-1.72-.44-.4-1.1-.6-1.98-.6-.6 0-1.193.093-1.78.28a4.366 4.366 0 00-1.46.78l-.98-1.82c.56-.427 1.233-.753 2.02-.98a8.988 8.988 0 012.5-.34zm-.34 9.12c.627 0 1.18-.14 1.66-.42.493-.293.84-.707 1.04-1.24v-1.24h-2.58c-1.44 0-2.16.473-2.16 1.42 0 .453.18.813.54 1.08.36.267.86.4 1.5.4zm8.293-9h2.5v4.34h5.38v-4.34h2.5V87h-2.5v-4.22h-5.38V87h-2.5V76.32zm13.731 0h2.5v7.04l5.9-7.04h2.28V87h-2.5v-7.04l-5.88 7.04h-2.3V76.32zm14.043 0h2.5v7.04l5.9-7.04h2.28V87h-2.5v-7.04l-5.88 7.04h-2.3V76.32zM475.84 84.8v5.18h-2.4V87H462.7v2.98h-2.42l.02-5.18h.6c.88-.04 1.493-.687 1.84-1.94.36-1.267.58-3.073.66-5.42l.16-4.44h10.26v11.8h2.02zm-10.16-7.12c-.067 1.813-.213 3.327-.44 4.54-.227 1.2-.587 2.06-1.08 2.58h7.1v-9.6h-5.48l-.1 2.48zm22.008-1.36V87h-2.5v-8.56h-4l-.1 2.12c-.067 1.413-.2 2.6-.4 3.56-.187.947-.513 1.7-.98 2.26-.453.547-1.08.82-1.88.82-.373 0-.833-.073-1.38-.22l.12-2.1c.187.04.347.06.48.06.507 0 .887-.2 1.14-.6.253-.413.413-.9.48-1.46.08-.573.147-1.387.2-2.44l.18-4.12h8.64zm12.387 0V87h-2.24v-3.22h-2.82l-2.18 3.22h-2.68l2.52-3.56c-.773-.267-1.367-.673-1.78-1.22-.4-.56-.6-1.247-.6-2.06 0-1.227.433-2.173 1.3-2.84.867-.667 2.06-1 3.58-1h4.9zm-4.82 2.1c-1.613 0-2.42.607-2.42 1.82 0 1.2.78 1.8 2.34 1.8h2.66v-3.62h-2.58zm19.49-1.58c1.013 0 1.907.22 2.68.66a4.502 4.502 0 011.8 1.8c.44.773.66 1.66.66 2.66 0 1.027-.24 1.94-.72 2.74-.48.787-1.153 1.4-2.02 1.84-.867.44-1.853.66-2.96.66-1.853 0-3.287-.613-4.3-1.84s-1.52-2.993-1.52-5.3c0-2.147.46-3.847 1.38-5.1.92-1.253 2.327-2.08 4.22-2.48l4.96-1.06.36 2.24-4.5.92c-1.293.267-2.26.72-2.9 1.36-.64.64-1.013 1.54-1.12 2.7a4.833 4.833 0 011.74-1.32c.68-.32 1.427-.48 2.24-.48zm-.5 8.34c.92 0 1.66-.293 2.22-.88.573-.6.86-1.36.86-2.28 0-.92-.287-1.66-.86-2.22-.56-.56-1.3-.84-2.22-.84-.933 0-1.687.28-2.26.84-.573.56-.86 1.3-.86 2.22 0 .933.287 1.693.86 2.28.587.587 1.34.88 2.26.88zm8.06-8.86h2.5v7.04l5.9-7.04h2.28V87h-2.5v-7.04l-5.88 7.04h-2.3V76.32zm20.286 5.12c.667.187 1.18.493 1.54.92.374.413.56.913.56 1.5 0 .653-.22 1.233-.66 1.74-.44.493-1.046.88-1.82 1.16-.773.28-1.653.42-2.64.42a10.45 10.45 0 01-2.42-.28c-.786-.2-1.5-.48-2.14-.84l.72-1.86c.52.293 1.107.52 1.76.68a8.22 8.22 0 001.96.24c.84 0 1.494-.127 1.96-.38.48-.267.72-.627.72-1.08 0-.413-.186-.733-.56-.96-.36-.227-.873-.34-1.54-.34h-2.08v-1.68h1.88c.627 0 1.114-.107 1.46-.32.36-.213.54-.513.54-.9s-.213-.693-.64-.92c-.426-.227-1.013-.34-1.76-.34-1.066 0-2.193.26-3.38.78l-.64-1.84c1.4-.653 2.814-.98 4.24-.98.907 0 1.72.127 2.44.38.72.24 1.28.587 1.68 1.04.414.44.62.947.62 1.52 0 .52-.16.987-.48 1.4-.32.4-.76.713-1.32.94zm4.694-5.12h2.5v4.34h5.38v-4.34h2.5V87h-2.5v-4.22h-5.38V87h-2.5V76.32zm23.731 5.4c0 .173-.013.42-.04.74h-8.38c.147.787.527 1.413 1.14 1.88.627.453 1.4.68 2.32.68 1.173 0 2.14-.387 2.9-1.16l1.34 1.54a4.517 4.517 0 01-1.82 1.3c-.733.293-1.56.44-2.48.44-1.173 0-2.207-.233-3.1-.7-.893-.467-1.587-1.113-2.08-1.94-.48-.84-.72-1.787-.72-2.84 0-1.04.233-1.973.7-2.8a5.087 5.087 0 011.98-1.96c.84-.467 1.787-.7 2.84-.7 1.04 0 1.967.233 2.78.7a4.718 4.718 0 011.92 1.94c.467.827.7 1.787.7 2.88zm-5.4-3.52c-.8 0-1.48.24-2.04.72-.547.467-.88 1.093-1 1.88h6.06c-.107-.773-.433-1.4-.98-1.88-.547-.48-1.227-.72-2.04-.72zm12.994 8.94c-1.106 0-2.1-.233-2.98-.7a5.166 5.166 0 01-2.06-1.94c-.493-.84-.74-1.787-.74-2.84s.247-1.993.74-2.82a5.204 5.204 0 012.04-1.94c.88-.467 1.88-.7 3-.7 1.054 0 1.974.213 2.76.64.8.427 1.4 1.04 1.8 1.84l-1.92 1.12c-.306-.493-.693-.86-1.16-1.1a3.021 3.021 0 00-1.5-.38c-.933 0-1.706.307-2.32.92-.613.6-.92 1.407-.92 2.42s.3 1.827.9 2.44c.614.6 1.394.9 2.34.9.547 0 1.047-.12 1.5-.36a3.098 3.098 0 001.16-1.12l1.92 1.12c-.413.8-1.02 1.42-1.82 1.86-.786.427-1.7.64-2.74.64zm10.741-10.94c1.574 0 2.774.38 3.6 1.14.84.747 1.26 1.88 1.26 3.4V87h-2.36v-1.3c-.306.467-.746.827-1.32 1.08-.56.24-1.24.36-2.04.36s-1.5-.133-2.1-.4c-.6-.28-1.066-.66-1.4-1.14a2.985 2.985 0 01-.48-1.66c0-.96.354-1.727 1.06-2.3.72-.587 1.847-.88 3.38-.88h2.76v-.16c0-.747-.226-1.32-.68-1.72-.44-.4-1.1-.6-1.98-.6-.6 0-1.193.093-1.78.28a4.366 4.366 0 00-1.46.78l-.98-1.82c.56-.427 1.234-.753 2.02-.98a8.988 8.988 0 012.5-.34zm-.34 9.12c.627 0 1.18-.14 1.66-.42.494-.293.84-.707 1.04-1.24v-1.24h-2.58c-1.44 0-2.16.473-2.16 1.42 0 .453.18.813.54 1.08.36.267.86.4 1.5.4zM854.36 73v14h-2.56V75.2h-7.26V87h-2.56V73h12.38zm8.428 14.14c-1.08 0-2.054-.233-2.92-.7a5.191 5.191 0 01-2.04-1.94c-.48-.84-.72-1.787-.72-2.84s.24-1.993.72-2.82a5.191 5.191 0 012.04-1.94c.866-.467 1.84-.7 2.92-.7 1.093 0 2.073.233 2.94.7a5.06 5.06 0 012.02 1.94c.493.827.74 1.767.74 2.82s-.247 2-.74 2.84a5.06 5.06 0 01-2.02 1.94c-.867.467-1.847.7-2.94.7zm0-2.14c.92 0 1.68-.307 2.28-.92.6-.613.9-1.42.9-2.42s-.3-1.807-.9-2.42c-.6-.613-1.36-.92-2.28-.92-.92 0-1.68.307-2.28.92-.587.613-.88 1.42-.88 2.42s.293 1.807.88 2.42c.6.613 1.36.92 2.28.92zm19.452-.12v4.5h-2.34V87h-8.24v2.38h-2.32v-4.5h.5c.68-.027 1.14-.46 1.38-1.3.253-.853.42-2.053.5-3.6l.14-3.66h8.8v8.56h1.58zM874 80.16c-.053 1.227-.153 2.227-.3 3-.147.773-.413 1.347-.8 1.72h5.26v-6.44h-4.1l-.06 1.72zm21.873 4.72v4.5h-2.34V87h-8.24v2.38h-2.32v-4.5h.5c.68-.027 1.14-.46 1.38-1.3.253-.853.42-2.053.5-3.6l.14-3.66h8.8v8.56h1.58zm-8.24-4.72c-.053 1.227-.153 2.227-.3 3-.147.773-.413 1.347-.8 1.72h5.26v-6.44h-4.1l-.06 1.72zm20.473 1.56c0 .173-.014.42-.04.74h-8.38c.146.787.526 1.413 1.14 1.88.626.453 1.4.68 2.32.68 1.173 0 2.14-.387 2.9-1.16l1.34 1.54a4.517 4.517 0 01-1.82 1.3c-.734.293-1.56.44-2.48.44-1.174 0-2.207-.233-3.1-.7-.894-.467-1.587-1.113-2.08-1.94-.48-.84-.72-1.787-.72-2.84 0-1.04.233-1.973.7-2.8a5.087 5.087 0 011.98-1.96c.84-.467 1.786-.7 2.84-.7 1.04 0 1.966.233 2.78.7a4.73 4.73 0 011.92 1.94c.466.827.7 1.787.7 2.88zm-5.4-3.52c-.8 0-1.48.24-2.04.72-.547.467-.88 1.093-1 1.88h6.06c-.107-.773-.434-1.4-.98-1.88-.547-.48-1.227-.72-2.04-.72zm14.054-2c1.04 0 1.967.227 2.78.68a4.885 4.885 0 011.94 1.92c.467.827.7 1.78.7 2.86 0 1.08-.233 2.04-.7 2.88a4.885 4.885 0 01-1.94 1.92c-.813.453-1.74.68-2.78.68-1.44 0-2.58-.48-3.42-1.44v5.18h-2.5V76.32h2.38v1.4a3.88 3.88 0 011.52-1.14 5.242 5.242 0 012.02-.38zm-.28 8.8c.92 0 1.673-.307 2.26-.92.6-.613.9-1.42.9-2.42s-.3-1.807-.9-2.42c-.587-.613-1.34-.92-2.26-.92-.6 0-1.14.14-1.62.42-.48.267-.86.653-1.14 1.16-.28.507-.42 1.093-.42 1.76s.14 1.253.42 1.76c.28.507.66.9 1.14 1.18.48.267 1.02.4 1.62.4zm17.977-2.28h-1.8V87h-2.48v-4.28h-1.8l-2.6 4.28h-2.96l3.5-5.52-3.24-5.16h2.66l2.6 4.32h1.84v-4.32h2.48v4.32h1.82l2.62-4.32h2.66l-3.24 5.16 3.52 5.52h-2.98l-2.6-4.28zm11.878 0h-1.94V87h-2.5V76.32h2.5v4.32h2l3.16-4.32h2.68l-3.88 5.14 4.14 5.54h-2.94l-3.22-4.28zm11.708-6.52c1.573 0 2.773.38 3.6 1.14.84.747 1.26 1.88 1.26 3.4V87h-2.36v-1.3c-.307.467-.747.827-1.32 1.08-.56.24-1.24.36-2.04.36s-1.5-.133-2.1-.4c-.6-.28-1.067-.66-1.4-1.14a2.985 2.985 0 01-.48-1.66c0-.96.353-1.727 1.06-2.3.72-.587 1.846-.88 3.38-.88h2.76v-.16c0-.747-.227-1.32-.68-1.72-.44-.4-1.1-.6-1.98-.6-.6 0-1.194.093-1.78.28a4.356 4.356 0 00-1.46.78l-.98-1.82c.56-.427 1.233-.753 2.02-.98a8.983 8.983 0 012.5-.34zm-.34 9.12c.626 0 1.18-.14 1.66-.42.493-.293.84-.707 1.04-1.24v-1.24h-2.58c-1.44 0-2.16.473-2.16 1.42 0 .453.18.813.54 1.08.36.267.86.4 1.5.4zM87.12 272.1h-2.6v5.9h-2.56v-14h2.56v5.86h2.68l4.02-5.86h2.76l-4.78 6.78 4.96 7.22h-2.94l-4.1-5.9zm12.642-4.9c1.573 0 2.773.38 3.6 1.14.84.747 1.26 1.88 1.26 3.4V278h-2.36v-1.3c-.307.467-.747.827-1.32 1.08-.56.24-1.24.36-2.04.36s-1.5-.133-2.1-.4c-.6-.28-1.067-.66-1.4-1.14a2.985 2.985 0 01-.48-1.66c0-.96.353-1.727 1.06-2.3.72-.587 1.846-.88 3.38-.88h2.76v-.16c0-.747-.227-1.32-.68-1.72-.44-.4-1.1-.6-1.98-.6-.6 0-1.194.093-1.78.28a4.372 4.372 0 00-1.46.78l-.98-1.82c.56-.427 1.233-.753 2.02-.98a8.975 8.975 0 012.5-.34zm-.34 9.12c.626 0 1.18-.14 1.66-.42.493-.293.84-.707 1.04-1.24v-1.24h-2.58c-1.44 0-2.16.473-2.16 1.42 0 .453.18.813.54 1.08.36.267.86.4 1.5.4zm14.213-9.12c1.04 0 1.967.227 2.78.68a4.882 4.882 0 011.94 1.92c.467.827.7 1.78.7 2.86 0 1.08-.233 2.04-.7 2.88a4.882 4.882 0 01-1.94 1.92c-.813.453-1.74.68-2.78.68-1.44 0-2.58-.48-3.42-1.44v5.18h-2.5v-14.56h2.38v1.4c.413-.507.92-.887 1.52-1.14a5.247 5.247 0 012.02-.38zm-.28 8.8c.92 0 1.673-.307 2.26-.92.6-.613.9-1.42.9-2.42s-.3-1.807-.9-2.42c-.587-.613-1.34-.92-2.26-.92-.6 0-1.14.14-1.62.42-.48.267-.86.653-1.14 1.16-.28.507-.42 1.093-.42 1.76s.14 1.253.42 1.76c.28.507.66.9 1.14 1.18.48.267 1.02.4 1.62.4zm13.548-5.16c1.36 0 2.4.307 3.12.92.734.613 1.1 1.48 1.1 2.6 0 1.173-.4 2.08-1.2 2.72-.8.64-1.926.953-3.38.94l-5-.02v-10.68h2.5v3.5l2.86.02zm-.58 5.34c.734.013 1.294-.14 1.68-.46.387-.32.58-.787.58-1.4 0-.6-.186-1.04-.56-1.32-.373-.28-.94-.427-1.7-.44l-2.28-.02v3.62l2.28.02zm16.998-3.46c0 .173-.014.42-.04.74h-8.38c.146.787.526 1.413 1.14 1.88.626.453 1.4.68 2.32.68 1.173 0 2.14-.387 2.9-1.16l1.34 1.54a4.517 4.517 0 01-1.82 1.3c-.734.293-1.56.44-2.48.44-1.174 0-2.207-.233-3.1-.7-.894-.467-1.587-1.113-2.08-1.94-.48-.84-.72-1.787-.72-2.84 0-1.04.233-1.973.7-2.8a5.089 5.089 0 011.98-1.96c.84-.467 1.786-.7 2.84-.7 1.04 0 1.966.233 2.78.7a4.728 4.728 0 011.92 1.94c.466.827.7 1.787.7 2.88zm-5.4-3.52c-.8 0-1.48.24-2.04.72-.547.467-.88 1.093-1 1.88h6.06c-.107-.773-.434-1.4-.98-1.88-.547-.48-1.227-.72-2.04-.72zm14.054-2c1.04 0 1.967.227 2.78.68a4.882 4.882 0 011.94 1.92c.467.827.7 1.78.7 2.86 0 1.08-.233 2.04-.7 2.88a4.882 4.882 0 01-1.94 1.92c-.813.453-1.74.68-2.78.68-1.44 0-2.58-.48-3.42-1.44v5.18h-2.5v-14.56h2.38v1.4c.413-.507.92-.887 1.52-1.14a5.247 5.247 0 012.02-.38zm-.28 8.8c.92 0 1.673-.307 2.26-.92.6-.613.9-1.42.9-2.42s-.3-1.807-.9-2.42c-.587-.613-1.34-.92-2.26-.92-.6 0-1.14.14-1.62.42-.48.267-.86.653-1.14 1.16-.28.507-.42 1.093-.42 1.76s.14 1.253.42 1.76c.28.507.66.9 1.14 1.18.48.267 1.02.4 1.62.4zm12.031-8.8c1.574 0 2.774.38 3.6 1.14.84.747 1.26 1.88 1.26 3.4V278h-2.36v-1.3c-.306.467-.746.827-1.32 1.08-.56.24-1.24.36-2.04.36s-1.5-.133-2.1-.4c-.6-.28-1.066-.66-1.4-1.14a2.985 2.985 0 01-.48-1.66c0-.96.354-1.727 1.06-2.3.72-.587 1.847-.88 3.38-.88h2.76v-.16c0-.747-.226-1.32-.68-1.72-.44-.4-1.1-.6-1.98-.6-.6 0-1.193.093-1.78.28a4.376 4.376 0 00-1.46.78l-.98-1.82c.56-.427 1.234-.753 2.02-.98a8.977 8.977 0 012.5-.34zm-.34 9.12c.627 0 1.18-.14 1.66-.42.494-.293.84-.707 1.04-1.24v-1.24h-2.58c-1.44 0-2.16.473-2.16 1.42 0 .453.18.813.54 1.08.36.267.86.4 1.5.4zM474.36 264v14h-2.56v-11.8h-7.26V278h-2.56v-14h12.38zm9.588 3.2c1.04 0 1.966.227 2.78.68a4.888 4.888 0 011.94 1.92c.466.827.7 1.78.7 2.86 0 1.08-.234 2.04-.7 2.88a4.888 4.888 0 01-1.94 1.92c-.814.453-1.74.68-2.78.68-1.44 0-2.58-.48-3.42-1.44v5.18h-2.5v-14.56h2.38v1.4c.413-.507.92-.887 1.52-1.14a5.244 5.244 0 012.02-.38zm-.28 8.8c.92 0 1.673-.307 2.26-.92.6-.613.9-1.42.9-2.42s-.3-1.807-.9-2.42c-.587-.613-1.34-.92-2.26-.92-.6 0-1.14.14-1.62.42-.48.267-.86.653-1.14 1.16-.28.507-.42 1.093-.42 1.76s.14 1.253.42 1.76c.28.507.66.9 1.14 1.18.48.267 1.02.4 1.62.4zm18.188-3.28c0 .173-.014.42-.04.74h-8.38c.146.787.526 1.413 1.14 1.88.626.453 1.4.68 2.32.68 1.173 0 2.14-.387 2.9-1.16l1.34 1.54a4.517 4.517 0 01-1.82 1.3c-.734.293-1.56.44-2.48.44-1.174 0-2.207-.233-3.1-.7-.894-.467-1.587-1.113-2.08-1.94-.48-.84-.72-1.787-.72-2.84 0-1.04.233-1.973.7-2.8a5.089 5.089 0 011.98-1.96c.84-.467 1.786-.7 2.84-.7 1.04 0 1.966.233 2.78.7a4.728 4.728 0 011.92 1.94c.466.827.7 1.787.7 2.88zm-5.4-3.52c-.8 0-1.48.24-2.04.72-.547.467-.88 1.093-1 1.88h6.06c-.107-.773-.434-1.4-.98-1.88-.547-.48-1.227-.72-2.04-.72zm12.994 8.94c-1.107 0-2.1-.233-2.98-.7a5.16 5.16 0 01-2.06-1.94c-.493-.84-.74-1.787-.74-2.84s.247-1.993.74-2.82a5.191 5.191 0 012.04-1.94c.88-.467 1.88-.7 3-.7 1.053 0 1.973.213 2.76.64.8.427 1.4 1.04 1.8 1.84l-1.92 1.12c-.307-.493-.693-.86-1.16-1.1a3.024 3.024 0 00-1.5-.38c-.933 0-1.707.307-2.32.92-.613.6-.92 1.407-.92 2.42s.3 1.827.9 2.44c.613.6 1.393.9 2.34.9.547 0 1.047-.12 1.5-.36a3.105 3.105 0 001.16-1.12l1.92 1.12c-.413.8-1.02 1.42-1.82 1.86-.787.427-1.7.64-2.74.64zm11.465 0c-1.107 0-2.1-.233-2.98-.7a5.16 5.16 0 01-2.06-1.94c-.493-.84-.74-1.787-.74-2.84s.247-1.993.74-2.82a5.191 5.191 0 012.04-1.94c.88-.467 1.88-.7 3-.7 1.053 0 1.973.213 2.76.64.8.427 1.4 1.04 1.8 1.84l-1.92 1.12c-.307-.493-.693-.86-1.16-1.1a3.024 3.024 0 00-1.5-.38c-.933 0-1.707.307-2.32.92-.613.6-.92 1.407-.92 2.42s.3 1.827.9 2.44c.613.6 1.393.9 2.34.9.547 0 1.047-.12 1.5-.36a3.105 3.105 0 001.16-1.12l1.92 1.12c-.413.8-1.02 1.42-1.82 1.86-.787.427-1.7.64-2.74.64zm5.888-6.74h5.5v2.08h-5.5v-2.08zm19.995 4.48v4.58h-2.34V278h-9.38v-10.68h2.5v8.56h5.1v-8.56h2.5v8.56h1.62zm12.226-3.16c0 .173-.014.42-.04.74h-8.38c.146.787.526 1.413 1.14 1.88.626.453 1.4.68 2.32.68 1.173 0 2.14-.387 2.9-1.16l1.34 1.54a4.517 4.517 0 01-1.82 1.3c-.734.293-1.56.44-2.48.44-1.174 0-2.207-.233-3.1-.7-.894-.467-1.587-1.113-2.08-1.94-.48-.84-.72-1.787-.72-2.84 0-1.04.233-1.973.7-2.8a5.089 5.089 0 011.98-1.96c.84-.467 1.786-.7 2.84-.7 1.04 0 1.966.233 2.78.7a4.728 4.728 0 011.92 1.94c.466.827.7 1.787.7 2.88zm-5.4-3.52c-.8 0-1.48.24-2.04.72-.547.467-.88 1.093-1 1.88h6.06c-.107-.773-.434-1.4-.98-1.88-.547-.48-1.227-.72-2.04-.72zm8.134-1.88h2.5v4.34h5.38v-4.34h2.5V278h-2.5v-4.22h-5.38V278h-2.5v-10.68zm22.191 2.12h-3.74V278h-2.5v-8.56h-3.76v-2.12h10v2.12zm7.733-2.24c1.04 0 1.967.227 2.78.68a4.882 4.882 0 011.94 1.92c.467.827.7 1.78.7 2.86 0 1.08-.233 2.04-.7 2.88a4.882 4.882 0 01-1.94 1.92c-.813.453-1.74.68-2.78.68-1.44 0-2.58-.48-3.42-1.44v5.18h-2.5v-14.56h2.38v1.4c.413-.507.92-.887 1.52-1.14a5.247 5.247 0 012.02-.38zm-.28 8.8c.92 0 1.673-.307 2.26-.92.6-.613.9-1.42.9-2.42s-.3-1.807-.9-2.42c-.587-.613-1.34-.92-2.26-.92-.6 0-1.14.14-1.62.42-.48.267-.86.653-1.14 1.16-.28.507-.42 1.093-.42 1.76s.14 1.253.42 1.76c.28.507.66.9 1.14 1.18.48.267 1.02.4 1.62.4z" fill="#262626"/><path d="M1120 500c0-6.627-5.37-12-12-12s-12 5.373-12 12c0 5.989 4.39 10.954 10.12 11.854v-8.385h-3.04V500h3.04v-2.644c0-3.007 1.8-4.669 4.54-4.669 1.31 0 2.68.235 2.68.235v2.953h-1.51c-1.49 0-1.95.925-1.95 1.875V500h3.32l-.53 3.469h-2.79v8.385c5.73-.9 10.12-5.865 10.12-11.854zM1148 490.161c3.21 0 3.59.014 4.85.07 1.17.052 1.8.249 2.22.413.56.215.96.478 1.38.895.42.422.68.82.9 1.378.16.422.36 1.06.41 2.227.06 1.265.07 1.645.07 4.847 0 3.206-.01 3.586-.07 4.847-.05 1.171-.25 1.804-.41 2.226-.22.558-.48.961-.9 1.378-.42.422-.82.68-1.38.896-.42.164-1.06.36-2.22.412-1.27.056-1.65.07-4.85.07-3.21 0-3.59-.014-4.85-.07-1.17-.052-1.8-.248-2.22-.412a3.732 3.732 0 01-1.38-.896 3.78 3.78 0 01-.9-1.378c-.16-.422-.36-1.059-.41-2.226-.06-1.266-.07-1.646-.07-4.847 0-3.207.01-3.586.07-4.847.05-1.172.25-1.805.41-2.227.22-.558.48-.961.9-1.378.42-.422.82-.68 1.38-.895.42-.164 1.06-.361 2.22-.413 1.26-.056 1.64-.07 4.85-.07zm0-2.161c-3.26 0-3.67.014-4.95.07-1.27.057-2.15.263-2.91.558-.79.309-1.46.717-2.12 1.388a5.897 5.897 0 00-1.39 2.123c-.3.764-.5 1.636-.56 2.911-.06 1.284-.07 1.692-.07 4.95s.01 3.666.07 4.945c.06 1.275.26 2.152.56 2.911.31.792.72 1.463 1.39 2.128a5.786 5.786 0 002.12 1.383c.76.296 1.64.502 2.91.558 1.28.056 1.69.07 4.95.07 3.25 0 3.66-.014 4.94-.07 1.28-.056 2.15-.262 2.91-.558a5.904 5.904 0 002.13-1.383 6.001 6.001 0 001.38-2.123c.29-.764.5-1.636.56-2.911.05-1.28.07-1.687.07-4.945s-.02-3.666-.07-4.946c-.06-1.275-.27-2.151-.56-2.911a5.699 5.699 0 00-1.38-2.132 5.786 5.786 0 00-2.12-1.383c-.76-.296-1.63-.502-2.91-.558-1.28-.061-1.69-.075-4.95-.075z" fill="#434343"/><path d="M1148 493.836a6.164 6.164 0 000 12.328 6.164 6.164 0 000-12.328zm0 10.162a3.998 3.998 0 110-7.996 3.998 3.998 0 110 7.996zM1155.85 493.592c0 .797-.65 1.439-1.44 1.439a1.438 1.438 0 110-2.878c.79 0 1.44.647 1.44 1.439z" fill="#434343"/><g clip-path="url(#clip0)"><path d="M1183.55 509.75c9.05 0 14.01-7.503 14.01-14.008 0-.211-.01-.427-.02-.638.97-.697 1.8-1.56 2.46-2.549-.9.4-1.85.66-2.83.774a4.957 4.957 0 002.17-2.723c-.97.573-2.02.977-3.13 1.195a4.918 4.918 0 00-5.91-.969 4.933 4.933 0 00-2.17 2.309 5.012 5.012 0 00-.31 3.149 13.973 13.973 0 01-5.62-1.492 14.024 14.024 0 01-4.53-3.648 4.883 4.883 0 00-.53 3.586 4.92 4.92 0 002.06 2.984 4.883 4.883 0 01-2.23-.614v.061a4.869 4.869 0 001.11 3.12c.72.88 1.72 1.484 2.84 1.708a4.93 4.93 0 01-2.23.084c.32.978.93 1.834 1.76 2.447.82.614 1.82.955 2.84.975a9.87 9.87 0 01-7.29 2.037 13.95 13.95 0 007.55 2.212z" fill="#434343"/></g><path fill-rule="evenodd" clip-rule="evenodd" d="M942.256 490.003a10 10 0 100 19.994 1.678 1.678 0 00.336-.015 10.003 10.003 0 007.723-4.426 10 10 0 00-7.724-15.539 1.653 1.653 0 00-.335-.014zm.041 1.206c.051.001.102.004.152.006.398.095 1.024.778 1.565 2.154.329.838.587 1.814.767 2.881h-4.851c.179-1.067.438-2.043.771-2.881.557-1.415 1.203-2.096 1.596-2.16zm-3.583 5.041c.328-2.063.919-3.784 1.667-4.894a8.801 8.801 0 00-6.335 4.894h4.668zm-5.216 1.5h5.03a25.174 25.174 0 00-.099 2.25c0 .774.034 1.527.099 2.25h-5.032a8.802 8.802 0 01.002-4.5zm6.238 0h5.24c.069.726.104 1.48.104 2.25s-.034 1.524-.102 2.25h-5.24a24.542 24.542 0 01-.002-4.5zm6.45 0a25.167 25.167 0 010 4.5h4.318a8.793 8.793 0 000-4.5h-4.318zm3.771-1.5a8.803 8.803 0 00-5.495-4.695c.687 1.112 1.229 2.752 1.538 4.695h3.957zm-10.023 7.5h4.85c-.179 1.067-.438 2.043-.77 2.881-.541 1.371-1.166 2.059-1.565 2.154-.051.002-.101.005-.152.006-.397-.064-1.041-.746-1.596-2.16-.329-.838-.587-1.814-.767-2.881zm-1.22 0h-4.671a8.794 8.794 0 006.339 4.896c-.749-1.11-1.34-2.832-1.668-4.896zm11.243 0H946c-.309 1.943-.851 3.583-1.538 4.695a8.807 8.807 0 005.495-4.695z" fill="#434343"/><path d="M964.741 501.302V505h-1.729v-9.953h3.807c1.112 0 1.994.289 2.646.868.656.579.984 1.344.984 2.297 0 .975-.321 1.734-.964 2.276-.638.543-1.533.814-2.686.814h-2.058zm0-1.388h2.078c.616 0 1.085-.143 1.409-.431.323-.291.485-.711.485-1.257 0-.538-.164-.967-.492-1.286-.328-.323-.78-.489-1.354-.499h-2.126v3.473zm9.762 2.707l1.504-5.017h1.77l-2.939 8.517c-.451 1.244-1.217 1.866-2.297 1.866-.242 0-.508-.041-.8-.123v-1.285l.315.021c.419 0 .733-.078.943-.233.214-.15.383-.405.506-.765l.239-.636-2.598-7.362h1.792l1.565 5.017zm7.178 1.19c.414 0 .758-.121 1.032-.363.273-.241.419-.54.437-.895h1.566c-.018.46-.162.891-.431 1.292a2.832 2.832 0 01-1.094.943c-.46.233-.957.349-1.49.349-1.034 0-1.855-.335-2.461-1.005-.606-.67-.909-1.595-.909-2.776v-.17c0-1.126.301-2.026.902-2.701.602-.679 1.422-1.018 2.461-1.018.88 0 1.595.257 2.147.772.556.511.847 1.183.875 2.017h-1.566c-.018-.424-.164-.773-.437-1.046-.269-.273-.613-.41-1.032-.41-.538 0-.953.196-1.244.588-.292.387-.44.977-.445 1.77v.267c0 .802.144 1.401.431 1.798.292.392.711.588 1.258.588zm7.328 0c.415 0 .759-.121 1.032-.363.273-.241.419-.54.438-.895h1.565c-.018.46-.162.891-.431 1.292a2.836 2.836 0 01-1.093.943 3.258 3.258 0 01-1.491.349c-1.034 0-1.855-.335-2.461-1.005-.606-.67-.909-1.595-.909-2.776v-.17c0-1.126.301-2.026.903-2.701.601-.679 1.421-1.018 2.46-1.018.88 0 1.596.257 2.147.772.556.511.848 1.183.875 2.017h-1.565c-.019-.424-.165-.773-.438-1.046-.269-.273-.613-.41-1.032-.41-.538 0-.953.196-1.244.588-.292.387-.44.977-.445 1.77v.267c0 .802.144 1.401.431 1.798.292.392.711.588 1.258.588zm6.918-1.737h-.841V505h-1.661v-7.396h1.661v2.953h.731l2.044-2.953h2.051l-2.673 3.541 2.901 3.855h-2.162l-2.051-2.926zm9.743-4.47h1.65V505h-1.65v-4.936l-2.9 4.936h-1.65v-7.396h1.65v4.935l2.9-4.935zm8.04 0h1.65V505h-1.65v-4.936l-2.9 4.936h-1.66v-7.396h1.66v4.935l2.9-4.935zm.78-2.837c0 .574-.2 1.039-.61 1.394-.4.356-.93.533-1.6.533s-1.21-.177-1.61-.533c-.4-.355-.6-.82-.6-1.394h1.24c0 .3.09.535.26.704.17.164.41.246.71.246s.53-.082.7-.246c.17-.169.26-.404.26-.704h1.25zm6.15 6.186c0-1.053.14-2.051.42-2.994.29-.948.7-1.793 1.25-2.536.54-.748 1.12-1.272 1.73-1.572l.33.97c-.64.488-1.16 1.233-1.56 2.236-.4.998-.62 2.142-.65 3.431l-.01.588c0 1.381.19 2.614.58 3.698.39 1.08.94 1.903 1.64 2.468l-.33.923c-.61-.301-1.19-.827-1.74-1.579a8.159 8.159 0 01-1.24-2.529c-.28-.944-.42-1.978-.42-3.104zm8.67.212h-1.92V505h-1.73v-9.953h3.5c1.14 0 2.03.257 2.66.772.62.515.93 1.26.93 2.236 0 .665-.16 1.223-.48 1.674-.32.447-.77.791-1.34 1.033l2.23 4.149V505h-1.85l-2-3.835zm-1.92-1.388h1.77c.59 0 1.04-.145 1.37-.437.33-.296.49-.7.49-1.21 0-.533-.15-.946-.46-1.237-.3-.292-.75-.442-1.35-.452h-1.82v3.336zm14.28-4.73v6.651c0 1.058-.34 1.896-1.02 2.516-.67.615-1.57.923-2.7.923-1.14 0-2.04-.303-2.71-.909-.67-.611-1-1.457-1-2.537v-6.644h1.72v6.658c0 .665.17 1.174.5 1.524.34.351.84.527 1.49.527 1.33 0 2-.702 2-2.106v-6.603h1.72zm4.9 6.015c0 1.012-.14 1.99-.42 2.933-.28.939-.7 1.793-1.26 2.564-.57.774-1.16 1.31-1.77 1.606l-.33-.923c.68-.528 1.22-1.335 1.62-2.42.4-1.089.6-2.331.6-3.725v-.158c0-1.266-.17-2.419-.52-3.459-.35-1.043-.84-1.879-1.49-2.508l-.21-.192.33-.929c.58.282 1.14.783 1.69 1.503a8.06 8.06 0 011.26 2.42c.29.889.45 1.807.49 2.755l.01.533z" fill="#262626"/><path stroke="#262626" d="M962 511.5h86"/><defs><clipPath id="clip0"><path fill="#fff" transform="translate(1176 488)" d="M0 0h24v24H0z"/></clipPath></defs></svg>