<svg width="1279" height="98" viewBox="0 0 1279 98" fill="none" xmlns="http://www.w3.org/2000/svg"><path fill="#0053D9" d="M0 0h1280v98H0z"/><path d="M1093.67 57.094l-3.78-3.765a8.805 8.805 0 001.88-5.443 8.86 8.86 0 00-1.5-4.937 8.851 8.851 0 00-3.98-3.273 8.907 8.907 0 00-5.14-.505 8.882 8.882 0 00-6.47 12.116 8.872 8.872 0 008.21 5.485 8.792 8.792 0 005.44-1.877l3.76 3.776c.11.105.23.187.37.244.13.056.28.085.42.085.15 0 .29-.029.43-.085.14-.057.26-.14.36-.244a.939.939 0 00.24-.361 1.053 1.053 0 000-.854.939.939 0 00-.24-.362zm-17.45-9.208a6.68 6.68 0 011.12-3.703 6.717 6.717 0 013-2.454 6.66 6.66 0 018.7 8.708 6.665 6.665 0 01-2.45 2.99 6.686 6.686 0 01-3.7 1.123c-1.77 0-3.47-.702-4.72-1.951a6.662 6.662 0 01-1.95-4.713z" fill="#fff"/><path d="M1145.13 54v-9.953h3.41c1.13 0 1.99.226 2.57.677.59.45.89 1.123.89 2.016 0 .456-.13.866-.37 1.23-.25.365-.61.648-1.08.848.53.146.95.422 1.24.828.3.4.44.884.44 1.449 0 .934-.3 1.652-.9 2.153-.59.501-1.45.752-2.57.752h-3.63zm1.73-4.491v3.11h1.92c.54 0 .97-.134 1.27-.403.31-.27.46-.643.46-1.121 0-1.035-.53-1.563-1.58-1.586h-2.07zm0-1.272h1.7c.53 0 .95-.12 1.25-.362.31-.246.46-.592.46-1.04 0-.491-.14-.847-.42-1.066-.28-.218-.71-.328-1.31-.328h-1.68v2.796zm9.6.8l1.41-2.434h1.84l-2.26 3.644 2.34 3.753h-1.83l-1.48-2.53-1.47 2.53h-1.85l2.34-3.753-2.25-3.644h1.83l1.38 2.434zm3.8 1.196c0-.724.14-1.376.43-1.955.29-.583.69-1.03 1.21-1.34.52-.314 1.12-.471 1.79-.471 1 0 1.81.321 2.43.964.62.642.96 1.495 1.01 2.556l.01.39c0 .73-.14 1.38-.43 1.955a3.11 3.11 0 01-1.2 1.333c-.52.315-1.12.472-1.8.472-1.05 0-1.88-.347-2.51-1.04-.63-.697-.94-1.624-.94-2.782v-.082zm1.66.144c0 .761.16 1.358.47 1.791.32.428.75.642 1.32.642.56 0 .99-.218 1.3-.656.32-.437.47-1.078.47-1.92 0-.748-.16-1.34-.48-1.778-.32-.437-.76-.656-1.31-.656-.54 0-.97.216-1.29.65-.32.428-.48 1.07-.48 1.927zm6.16 2.297c.46-.515.77-1.003.92-1.463.16-.465.26-1.057.29-1.777l.1-2.83h5.13v6.07h1.02V56.2h-1.65V54h-4.74v2.201h-1.69l.01-3.527h.61zm1.95 0h2.84v-4.642H1171l-.05 1.415c-.06 1.358-.37 2.434-.92 3.227zM1128 30h64v-2h-64v2zm71 7v24h2V37h-2zm-7 31h-64v2h64v-2zm-71-7V37h-2v24h2zm7 7c-3.87 0-7-3.134-7-7h-2a9 9 0 009 9v-2zm71-7c0 3.866-3.13 7-7 7v2a9 9 0 009-9h-2zm-7-31c3.87 0 7 3.134 7 7h2a9 9 0 00-9-9v2zm-64-2a9 9 0 00-9 9h2c0-3.866 3.13-7 7-7v-2zM101.615 57.186h-6.632V40.82h6.551a8.029 8.029 0 013.137.514c.843.351 1.555.946 2.039 1.705.47.713.722 1.54.727 2.388 0 .786-.228 1.556-.658 2.222a4.029 4.029 0 01-.577.725c.405.262.763.587 1.059.963.614.787.938 1.753.92 2.742a5.025 5.025 0 01-.54 2.295 4.6 4.6 0 01-1.375 1.685 5.635 5.635 0 01-1.972.871c-.879.191-1.779.277-2.679.256zm-2.855-3.458h2.855c.4.012.802-.007 1.199-.056.296-.043.582-.138.842-.281.197-.12.358-.29.465-.492.133-.253.199-.535.19-.82a1.54 1.54 0 00-.274-.93 1.4 1.4 0 00-.747-.52 6.664 6.664 0 00-1.932-.202h-2.595l-.003 3.3zm0-6.759h2.373a6.48 6.48 0 001.635-.135c.27-.06.513-.205.689-.413.155-.225.229-.493.214-.764a1.461 1.461 0 00-.222-.82.94.94 0 00-.542-.393c-.202-.062-.733-.166-2.019-.166H98.76v2.691z" fill="#F5F5F5"/><path opacity=".65" d="M88.664 46.44v-.065c.336-1.738.829-3.204 1.836-4.664-.545.09-1.11.167-1.702.229a40.451 40.451 0 01-7.722.187c-.886 2.61-1.199 5.194-1.04 7.943 2.75-1.274 5.325-2.653 8.565-3.605l.063-.026z" fill="#F5F5F5"/><path d="M86.32 63.968a20.948 20.948 0 006.864 4.505 21.056 21.056 0 0016.129-.151 20.936 20.936 0 006.777-4.632c1.216-1.24 2.317-2.54 3.193-4.036H118.2a32.44 32.44 0 01-8.943-1.003 12.054 12.054 0 01-4.123 2.352 3669 3669 0 00-4.052 8.559s-3.494-7.005-4.203-8.604a12.681 12.681 0 01-4.716-2.937 12.764 12.764 0 01-2.065-2.612 27.06 27.06 0 00-8.314 1.988 21.024 21.024 0 004.536 6.571z" fill="#F5F5F5"/><path opacity=".8" d="M81.784 57.39a28.037 28.037 0 018.323-1.985c-1.564-2.718-2.034-5.857-1.46-8.951-3.197.962-5.89 2.321-8.605 3.606a21.805 21.805 0 001.693 7.255l.05.075zM109.251 58.656a34.579 34.579 0 009.546 1.004l.537-.017a21.097 21.097 0 002.76-8.014 26.744 26.744 0 01-8.339-1.915 12.774 12.774 0 01-3.689 8.185c-.263.267-.815.757-.815.757z" fill="#F5F5F5"/><path opacity=".5" d="M112.826 43.529c1.367.167 2.714.236 4.092.213a24.89 24.89 0 004.454-.436c-.977-3.586-2.787-7.018-5.49-9.622-.414-.4-.858-.824-1.294-1.183-4.76.102-8.044 1.752-11.32 3.62a12.928 12.928 0 016.784 3.439 12.564 12.564 0 012.689 3.785l.085.184z" fill="#F5F5F5"/><path opacity=".3" d="M95.324 37.501c2.424-1.184 5.208-1.828 7.877-1.381h.068c3.284-1.875 6.559-3.516 11.333-3.615a21.164 21.164 0 00-9.459-4.436c-11.914-.875-9.676 6.808-20.206 6.957-.488.564-.884 1.383-1.308 1.994a26.452 26.452 0 013.101-.42c2.983-.208 5.767.085 8.594.901z" fill="#F5F5F5"/><path opacity=".5" d="M88.832 41.942a29.703 29.703 0 001.679-.227l.03-.041c.41-.59.868-1.146 1.37-1.66a12.7 12.7 0 013.428-2.515 23.596 23.596 0 00-8.67-.869 25.32 25.32 0 00-3.06.405 20.96 20.96 0 00-2.537 5.092 40.96 40.96 0 007.76-.185z" fill="#F5F5F5"/><path opacity=".65" d="M113.751 49.72c2.555 1.069 5.584 1.727 8.343 1.912.348-2.738-.006-5.657-.707-8.326-1.494.283-3.011.43-4.532.442a28.376 28.376 0 01-4.036-.22c.842 1.906 1.066 4.087.932 6.17v.023z" fill="#F5F5F5"/><path d="M262.541 57.543l-.205-.225h-.312v.225h-.094v-.71h.335a.485.485 0 01.27.066c.032.022.058.05.075.08a.19.19 0 01.022.1.19.19 0 01-.054.14.295.295 0 01-.154.084l.219.242-.102-.002zm-.077-.337a.193.193 0 00.052-.06.151.151 0 000-.142.192.192 0 00-.052-.06.373.373 0 00-.204-.048h-.239v.357h.239a.371.371 0 00.204-.045v-.002z" fill="#F5F5F5"/><path d="M262.287 57.9a.716.716 0 01-.66-.439.706.706 0 01.155-.775.716.716 0 011.098.108.714.714 0 01-.09.898.714.714 0 01-.503.209zm0-1.332a.624.624 0 00-.614.74.623.623 0 101.052-.557.623.623 0 00-.438-.183zM144.484 50.158c.544.741.823 1.644.793 2.563a3.78 3.78 0 01-.408 1.876 3.78 3.78 0 01-1.273 1.434c-1.122.772-2.744 1.158-4.866 1.158h-8.432V40.815h7.983c1.992 0 3.522.382 4.589 1.146a3.639 3.639 0 011.597 3.114 3.94 3.94 0 01-2.169 3.608 4.31 4.31 0 012.186 1.475zm-10.427-6.494v3.861h3.759c.934 0 1.642-.164 2.125-.492a1.643 1.643 0 00.723-1.441 1.617 1.617 0 00-.723-1.439c-.483-.32-1.191-.48-2.125-.48l-3.759-.009zm6.666 10.181a1.687 1.687 0 00.756-1.509c0-1.356-1.003-2.035-3.01-2.037h-4.412v4.038h4.412c.996 0 1.747-.164 2.254-.492zM158.296 57.189l-3.186-4.573h-3.51v4.562h-3.822v-16.36h7.143a9.232 9.232 0 013.808.724 5.647 5.647 0 012.488 2.06c.6.942.906 2.04.881 3.154a5.302 5.302 0 01-.87 3.12 5.368 5.368 0 01-2.528 2.049l3.704 5.264h-4.108zm-.969-12.551c-.594-.487-1.466-.73-2.616-.73h-3.114v5.702h3.114c1.148 0 2.02-.25 2.616-.75a2.6 2.6 0 00.895-2.107 2.582 2.582 0 00-.895-2.115zM177.029 54.146v3.043h-12.485V40.815h12.181v3.037h-8.48v3.557h7.494v2.958h-7.494v3.78h8.784zM192.725 54.146v3.043H180.24V40.815h12.181v3.037h-8.474v3.557h7.484v2.958h-7.484v3.78h8.778zM209.135 54.099v3.09h-14.269v-2.46l8.963-10.824h-8.784v-3.09h13.739v2.455l-8.935 10.832 9.286-.003zM224.83 54.099v3.09h-14.269v-2.46l8.953-10.833h-8.757v-3.081h13.724v2.455l-8.925 10.832 9.274-.003zM229.875 56.433a8.137 8.137 0 01-3.181-3.058 8.435 8.435 0 01-1.149-4.377 8.446 8.446 0 011.149-4.378 8.154 8.154 0 013.181-3.052 9.931 9.931 0 014.558-1.11 9.93 9.93 0 014.557 1.11 8.346 8.346 0 013.208 3.099 8.52 8.52 0 011.182 4.335 8.52 8.52 0 01-1.182 4.335 8.346 8.346 0 01-3.208 3.099 9.93 9.93 0 01-4.557 1.109 9.931 9.931 0 01-4.558-1.11v-.002zm7.163-2.834a4.785 4.785 0 001.824-1.875 5.993 5.993 0 000-5.475 4.785 4.785 0 00-1.824-1.876 5.369 5.369 0 00-5.203 0 4.782 4.782 0 00-1.823 1.876 5.981 5.981 0 000 5.474 4.782 4.782 0 001.823 1.876 5.372 5.372 0 005.203 0zM255.785 57.186l-3.106-4.572h-3.43v4.56h-3.728V40.818h6.972a8.833 8.833 0 013.718.725 5.553 5.553 0 012.429 2.059c.583.944.879 2.042.851 3.157a5.4 5.4 0 01-.849 3.12 5.27 5.27 0 01-2.467 2.047l3.615 5.264-4.005-.003zm-.943-12.549c-.584-.487-1.436-.73-2.556-.73h-3.04v5.701h3.04c1.12 0 1.972-.25 2.554-.75a2.628 2.628 0 00.873-2.107 2.631 2.631 0 00-.193-1.16 2.593 2.593 0 00-.678-.954z" fill="#F5F5F5"/><path d="M296.321 54h-1.722v-8.559h-4.382V54h-1.723v-9.953h7.827V54zm8.217-7.397V54h-1.661v-6.057h-2.092l-.137 2.578c-.086 1.24-.325 2.13-.717 2.672-.388.538-.982.807-1.785.807h-.512l-.007-1.38.342-.035c.364-.05.629-.271.793-.663.168-.397.275-1.117.321-2.16l.137-3.159h5.318zm7.691 0V54h-1.655v-2.714h-1.552L307.443 54h-1.722l1.743-2.987c-.456-.192-.807-.465-1.053-.82a2.13 2.13 0 01-.362-1.224c0-.688.264-1.251.793-1.689.533-.442 1.251-.667 2.153-.677h3.234zm-4.519 2.407c0 .31.114.563.342.759.232.191.528.287.888.287h1.634v-2.133h-1.531c-.406 0-.729.102-.971.307a.98.98 0 00-.362.78zm12.872 2.016h-.882V54h-1.661v-2.974h-.875L315.462 54h-2.037l2.454-3.849-2.324-3.548h2.03l1.675 2.906h.779v-2.906h1.661v2.906h.786l1.682-2.906h2.03l-2.317 3.528L324.349 54h-2.065l-1.702-2.974zm9.413-4.423h1.654V54h-1.654v-4.935L327.097 54h-1.655v-7.397h1.655v4.936l2.898-4.936zM358.044 54v-9.953h3.411c1.126 0 1.983.226 2.57.677.588.45.882 1.123.882 2.016 0 .456-.123.866-.369 1.23-.246.365-.606.648-1.08.848.538.146.952.422 1.244.828.296.4.444.884.444 1.449 0 .934-.3 1.652-.902 2.153-.597.501-1.454.752-2.57.752h-3.63zm1.729-4.491v3.11h1.921c.543 0 .966-.134 1.272-.403.305-.27.458-.643.458-1.121 0-1.035-.529-1.563-1.586-1.586h-2.065zm0-1.272h1.696c.538 0 .957-.12 1.258-.362.305-.246.458-.592.458-1.04 0-.491-.142-.847-.424-1.066-.278-.218-.713-.328-1.306-.328h-1.682v2.796zm10.815-.116a4.106 4.106 0 00-.677-.055c-.761 0-1.274.292-1.538.875V54h-1.661v-7.397h1.586l.041.828c.401-.643.957-.964 1.668-.964.237 0 .433.032.588.096l-.007 1.558zm4.17 6.016c-1.053 0-1.907-.33-2.564-.992-.651-.665-.977-1.549-.977-2.652v-.205c0-.738.141-1.397.424-1.975a3.27 3.27 0 011.203-1.36 3.171 3.171 0 011.722-.486c1.008 0 1.785.321 2.331.964.552.642.828 1.551.828 2.727v.67h-4.833c.05.61.253 1.094.608 1.45.36.355.811.532 1.354.532.761 0 1.38-.307 1.859-.922l.895.854a3.007 3.007 0 01-1.189 1.032 3.72 3.72 0 01-1.661.363zm-.198-6.337c-.456 0-.825.16-1.108.478-.278.32-.456.764-.533 1.333h3.165v-.123c-.036-.556-.185-.975-.444-1.258-.26-.287-.62-.43-1.08-.43zm7.717 6.337c-1.052 0-1.907-.33-2.563-.992-.652-.665-.978-1.549-.978-2.652v-.205c0-.738.142-1.397.424-1.975a3.27 3.27 0 011.203-1.36 3.172 3.172 0 011.723-.486c1.007 0 1.784.321 2.331.964.551.642.827 1.551.827 2.727v.67h-4.833c.05.61.253 1.094.609 1.45.36.355.811.532 1.353.532.761 0 1.381-.307 1.859-.922l.896.854a3.01 3.01 0 01-1.19 1.032c-.492.242-1.045.363-1.661.363zm-.198-6.337c-.456 0-.825.16-1.107.478-.278.32-.456.764-.534 1.333h3.166v-.123c-.037-.556-.185-.975-.445-1.258-.26-.287-.62-.43-1.08-.43zm6.234 4.874h3.938V54h-6.002v-1.087l3.753-4.97h-3.685v-1.34h5.79v1.053l-3.794 5.018zm7.041 0h3.938V54h-6.002v-1.087l3.753-4.97h-3.685v-1.34h5.79v1.053l-3.794 5.018zm4.847-2.44c0-.725.144-1.377.431-1.956.287-.583.69-1.03 1.21-1.34.519-.314 1.116-.471 1.791-.471.998 0 1.807.321 2.427.964.624.642.961 1.495 1.011 2.556l.007.39c0 .73-.141 1.38-.424 1.955a3.08 3.08 0 01-1.203 1.333c-.519.315-1.121.472-1.805.472-1.043 0-1.879-.347-2.508-1.04-.625-.697-.937-1.624-.937-2.782v-.082zm1.661.143c0 .761.158 1.358.472 1.791.314.428.752.642 1.312.642.561 0 .996-.218 1.306-.656.315-.437.472-1.078.472-1.92 0-.748-.162-1.34-.486-1.778-.319-.437-.754-.656-1.305-.656-.543 0-.973.216-1.292.65-.319.428-.479 1.07-.479 1.927zm10.493-2.256a4.094 4.094 0 00-.676-.055c-.761 0-1.274.292-1.538.875V54h-1.662v-7.397h1.586l.041.828c.401-.643.957-.964 1.668-.964.237 0 .433.032.588.096l-.007 1.558zm11.013 2.256c0 1.144-.26 2.058-.779 2.741-.52.68-1.217 1.019-2.092 1.019-.811 0-1.461-.267-1.948-.8v3.507h-1.661v-10.24h1.531l.068.752c.488-.593 1.151-.89 1.99-.89.902 0 1.608.338 2.119 1.012.515.67.772 1.602.772 2.796v.103zm-1.654-.144c0-.738-.148-1.323-.444-1.756-.292-.433-.711-.65-1.258-.65-.679 0-1.167.28-1.463.841v3.281c.301.574.793.861 1.476.861.529 0 .941-.211 1.238-.635.3-.429.451-1.076.451-1.942zM429.199 54c-.073-.141-.137-.371-.191-.69a2.587 2.587 0 01-1.942.827c-.742 0-1.349-.212-1.818-.636a2.035 2.035 0 01-.704-1.572c0-.789.292-1.393.875-1.812.588-.424 1.426-.636 2.516-.636h1.018v-.485c0-.383-.107-.688-.321-.916-.214-.232-.54-.349-.978-.349-.378 0-.688.096-.929.288a.868.868 0 00-.363.717h-1.661c0-.405.135-.783.403-1.134a2.68 2.68 0 011.094-.834c.465-.2.982-.301 1.552-.301.866 0 1.556.218 2.071.656.515.433.78 1.044.793 1.832v3.336c0 .665.094 1.196.281 1.593V54h-1.696zm-1.825-1.196c.328 0 .636-.08.923-.24.292-.16.51-.373.656-.642v-1.395h-.895c-.616 0-1.078.107-1.388.322-.31.214-.465.517-.465.909 0 .319.105.574.315.765.214.187.499.28.854.28zm9.126-.814a.751.751 0 00-.369-.677c-.242-.155-.645-.291-1.21-.41-.565-.118-1.037-.269-1.415-.45-.83-.402-1.244-.983-1.244-1.744 0-.638.269-1.171.806-1.6.538-.428 1.222-.642 2.051-.642.884 0 1.597.218 2.14.656.547.438.82 1.005.82 1.702h-1.661c0-.319-.119-.583-.356-.793-.236-.214-.551-.321-.943-.321-.364 0-.663.084-.895.253a.8.8 0 00-.342.677c0 .255.107.453.321.594.214.142.647.285 1.299.431.652.141 1.162.312 1.531.513.374.196.65.433.827.71.183.279.274.616.274 1.012 0 .666-.276 1.206-.827 1.62-.552.41-1.274.616-2.167.616-.606 0-1.147-.11-1.62-.328-.474-.22-.844-.52-1.108-.903a2.138 2.138 0 01-.396-1.237h1.613c.023.392.171.695.444.91.274.209.636.314 1.087.314.438 0 .77-.083.998-.246a.781.781 0 00.342-.657zm7.232 0a.751.751 0 00-.369-.677c-.241-.155-.645-.291-1.21-.41-.565-.118-1.036-.269-1.415-.45-.829-.402-1.244-.983-1.244-1.744 0-.638.269-1.171.807-1.6.538-.428 1.221-.642 2.051-.642.884 0 1.597.218 2.139.656.547.438.821 1.005.821 1.702h-1.662c0-.319-.118-.583-.355-.793-.237-.214-.552-.321-.943-.321-.365 0-.664.084-.896.253a.8.8 0 00-.342.677c0 .255.107.453.322.594.214.142.647.285 1.298.431.652.141 1.162.312 1.532.513.373.196.649.433.827.71.182.279.273.616.273 1.012 0 .666-.276 1.206-.827 1.62-.551.41-1.274.616-2.167.616-.606 0-1.146-.11-1.62-.328-.474-.22-.843-.52-1.107-.903a2.131 2.131 0 01-.397-1.237h1.613c.023.392.171.695.445.91.273.209.635.314 1.087.314.437 0 .77-.083.998-.246a.782.782 0 00.341-.657zM471.205 54v-9.953h3.411c1.126 0 1.983.226 2.571.677.587.45.881 1.123.881 2.016 0 .456-.123.866-.369 1.23-.246.365-.606.648-1.08.848.538.146.953.422 1.244.828.297.4.445.884.445 1.449 0 .934-.301 1.652-.903 2.153-.597.501-1.454.752-2.57.752h-3.63zm1.73-4.491v3.11h1.92c.543 0 .967-.134 1.272-.403.305-.27.458-.643.458-1.121 0-1.035-.529-1.563-1.586-1.586h-2.064zm0-1.272h1.695c.538 0 .957-.12 1.258-.362.305-.246.458-.592.458-1.04 0-.491-.142-.847-.424-1.066-.278-.218-.713-.328-1.306-.328h-1.681v2.796zM486.148 54h-1.661v-6.057h-2.884V54h-1.662v-7.397h6.207V54zm5.025.137c-1.053 0-1.907-.33-2.564-.992-.651-.665-.977-1.549-.977-2.652v-.205c0-.738.141-1.397.424-1.975a3.27 3.27 0 011.203-1.36 3.171 3.171 0 011.722-.486c1.008 0 1.785.321 2.331.964.552.642.828 1.551.828 2.727v.67h-4.833c.05.61.253 1.094.608 1.45.36.355.811.532 1.354.532.761 0 1.38-.307 1.859-.922l.895.854a3.007 3.007 0 01-1.189 1.032 3.72 3.72 0 01-1.661.363zm-.198-6.337c-.456 0-.825.16-1.108.478-.278.32-.456.764-.533 1.333h3.165v-.123c-.036-.556-.185-.975-.444-1.258-.26-.287-.62-.43-1.08-.43zm10.39 6.2h-1.661v-2.468c-.428.1-.879.15-1.353.15-1.012 0-1.785-.24-2.318-.724-.533-.488-.8-1.185-.8-2.092v-2.27h1.662v2.27c0 .538.118.919.355 1.142.242.223.608.335 1.101.335a6.02 6.02 0 001.353-.158v-3.582h1.661V54zm6.187 0c-.073-.141-.137-.371-.192-.69a2.583 2.583 0 01-1.941.827c-.743 0-1.349-.212-1.818-.636a2.033 2.033 0 01-.705-1.572c0-.789.292-1.393.875-1.812.588-.424 1.427-.636 2.516-.636h1.019v-.485c0-.383-.107-.688-.322-.916-.214-.232-.54-.349-.977-.349-.378 0-.688.096-.93.288a.87.87 0 00-.362.717h-1.661c0-.405.134-.783.403-1.134a2.674 2.674 0 011.094-.834c.465-.2.982-.301 1.552-.301.865 0 1.556.218 2.071.656.515.433.779 1.044.793 1.832v3.336c0 .665.093 1.196.28 1.593V54h-1.695zm-1.825-1.196c.328 0 .635-.08.922-.24.292-.16.511-.373.657-.642v-1.395h-.896c-.615 0-1.078.107-1.388.322-.309.214-.464.517-.464.909 0 .319.104.574.314.765.214.187.499.28.855.28zm10.691-4.881h-2.399V54h-1.662v-6.077h-2.372v-1.32h6.433v1.32zm7.109-1.32V54h-1.661v-6.057h-2.092l-.136 2.578c-.087 1.24-.326 2.13-.718 2.672-.387.538-.982.807-1.784.807h-.513l-.007-1.38.342-.035c.365-.05.629-.271.793-.663.169-.397.276-1.117.321-2.16l.137-3.159h5.318zm5.025 7.534c-1.053 0-1.907-.33-2.564-.992-.651-.665-.977-1.549-.977-2.652v-.205c0-.738.141-1.397.424-1.975a3.27 3.27 0 011.203-1.36 3.171 3.171 0 011.722-.486c1.008 0 1.785.321 2.331.964.552.642.828 1.551.828 2.727v.67h-4.833c.05.61.252 1.094.608 1.45.36.355.811.532 1.353.532.762 0 1.381-.307 1.86-.922l.895.854a3.007 3.007 0 01-1.189 1.032 3.72 3.72 0 01-1.661.363zm-.198-6.337c-.456 0-.825.16-1.108.478-.278.32-.456.764-.533 1.333h3.165v-.123c-.037-.556-.185-.975-.444-1.258-.26-.287-.62-.43-1.08-.43zm10.725 6.2h-1.661v-2.987h-2.878V54h-1.661v-7.397h1.661v3.084h2.878v-3.084h1.661V54zm6.392-7.397h1.654V54h-1.654v-4.935L542.572 54h-1.654v-7.397h1.654v4.936l2.899-4.936zm9.344 0V54h-1.654v-2.714h-1.552L550.03 54h-1.722l1.743-2.987c-.456-.192-.807-.465-1.053-.82a2.13 2.13 0 01-.362-1.224c0-.688.264-1.251.793-1.689.533-.442 1.251-.667 2.153-.677h3.233zm-4.518 2.407c0 .31.114.563.342.759.232.191.528.287.888.287h1.634v-2.133h-1.531c-.406 0-.729.102-.971.307a.98.98 0 00-.362.78zM583.742 44.047l2.871 7.629 2.865-7.63h2.235V54h-1.723v-3.281l.171-4.389-2.939 7.67h-1.238l-2.932-7.663.171 4.382V54H581.5v-9.953h2.242zM598.022 54c-.072-.141-.136-.371-.191-.69a2.586 2.586 0 01-1.941.827c-.743 0-1.349-.212-1.819-.636a2.035 2.035 0 01-.704-1.572c0-.789.292-1.393.875-1.812.588-.424 1.427-.636 2.516-.636h1.018v-.485c0-.383-.107-.688-.321-.916-.214-.232-.54-.349-.977-.349-.379 0-.689.096-.93.288a.867.867 0 00-.362.717h-1.662c0-.405.135-.783.404-1.134a2.678 2.678 0 011.093-.834c.465-.2.983-.301 1.552-.301.866 0 1.557.218 2.072.656.515.433.779 1.044.793 1.832v3.336c0 .665.093 1.196.28 1.593V54h-1.696zm-1.825-1.196c.328 0 .636-.08.923-.24.292-.16.511-.373.656-.642v-1.395h-.895c-.615 0-1.078.107-1.388.322-.31.214-.465.517-.465.909 0 .319.105.574.315.765.214.187.499.28.854.28zm11.457-2.427c0 1.144-.259 2.058-.779 2.741-.52.68-1.217 1.019-2.092 1.019-.811 0-1.46-.267-1.948-.8v3.507h-1.661v-10.24h1.531l.068.752c.488-.593 1.151-.89 1.99-.89.902 0 1.608.338 2.119 1.012.515.67.772 1.602.772 2.796v.103zM606 50.233c0-.738-.148-1.323-.444-1.756-.292-.433-.711-.65-1.258-.65-.679 0-1.167.28-1.463.841v3.281c.301.574.793.861 1.477.861.528 0 .941-.211 1.237-.635.301-.429.451-1.076.451-1.942zm4.792-3.63v6.07h2.311v-6.07h1.661v6.07h2.317v-6.07h1.654V54h-9.604v-7.397h1.661zm16.222 3.774c0 1.144-.26 2.058-.78 2.741-.519.68-1.216 1.019-2.091 1.019-.812 0-1.461-.267-1.949-.8v3.507h-1.661v-10.24h1.531l.069.752c.487-.593 1.151-.89 1.989-.89.902 0 1.609.338 2.119 1.012.515.67.773 1.602.773 2.796v.103zm-1.655-.144c0-.738-.148-1.323-.444-1.756-.292-.433-.711-.65-1.258-.65-.679 0-1.166.28-1.463.841v3.281c.301.574.793.861 1.477.861.529 0 .941-.211 1.237-.635.301-.429.451-1.076.451-1.942zm5.572 1.388l1.504-5.018h1.77l-2.939 8.518c-.452 1.244-1.217 1.866-2.297 1.866-.242 0-.508-.04-.8-.123V55.58l.314.02c.42 0 .734-.077.944-.232.214-.15.383-.405.506-.765l.239-.636-2.598-7.363h1.791l1.566 5.018zm10.055-3.698h-2.399V54h-1.661v-6.077h-2.372v-1.32h6.432v1.32zm2.899 1.032h1.627c.606 0 1.134.105 1.586.315.451.21.793.503 1.025.881.237.379.356.818.356 1.32 0 .76-.269 1.371-.807 1.832-.538.46-1.253.692-2.147.697h-3.301v-7.397h1.661v2.352zM651.37 54h-1.661v-7.397h1.661V54zm-7.485-3.712v2.386h1.62c.405 0 .724-.1.957-.301.237-.205.355-.494.355-.868s-.116-.668-.348-.882c-.228-.219-.538-.33-.93-.335h-1.654z" fill="#fff"/></svg>